<?xml version="1.0" encoding="UTF-8" standalone="no"?>
<!-- Created with Inkscape (http://www.inkscape.org/) -->

<svg
   xmlns:dc="http://purl.org/dc/elements/1.1/"
   xmlns:cc="http://creativecommons.org/ns#"
   xmlns:rdf="http://www.w3.org/1999/02/22-rdf-syntax-ns#"
   xmlns:svg="http://www.w3.org/2000/svg"
   xmlns="http://www.w3.org/2000/svg"
   xmlns:sodipodi="http://sodipodi.sourceforge.net/DTD/sodipodi-0.dtd"
   xmlns:inkscape="http://www.inkscape.org/namespaces/inkscape"
   width="680.48059"
   height="2041.4418"
   id="svg2"
   version="1.1"
   inkscape:version="0.47 r22583"
   sodipodi:docname="konik.svg"
   inkscape:export-filename="/home/mirek/ff3/konik.png"
   inkscape:export-xdpi="6.6577067"
   inkscape:export-ydpi="6.6577067">
  <defs
     id="defs4">
    <inkscape:perspective
       sodipodi:type="inkscape:persp3d"
       inkscape:vp_x="0 : 526.18109 : 1"
       inkscape:vp_y="0 : 1000 : 0"
       inkscape:vp_z="744.09448 : 526.18109 : 1"
       inkscape:persp3d-origin="372.04724 : 350.78739 : 1"
       id="perspective10" />
  </defs>
  <sodipodi:namedview
     id="base"
     pagecolor="#ffffff"
     bordercolor="#666666"
     borderopacity="1.0"
     inkscape:pageopacity="0.0"
     inkscape:pageshadow="2"
     inkscape:zoom="0.175"
     inkscape:cx="481.76352"
     inkscape:cy="1111.5931"
     inkscape:document-units="px"
     inkscape:current-layer="layer3"
     showgrid="false"
     inkscape:window-width="1030"
     inkscape:window-height="714"
     inkscape:window-x="328"
     inkscape:window-y="0"
     inkscape:window-maximized="0" />
  <metadata
     id="metadata7">
    <rdf:RDF>
      <cc:Work
         rdf:about="">
        <dc:format>image/svg+xml</dc:format>
        <dc:type
           rdf:resource="http://purl.org/dc/dcmitype/StillImage" />
        <dc:title></dc:title>
      </cc:Work>
    </rdf:RDF>
  </metadata>
  <g
     inkscape:groupmode="layer"
     id="layer3"
     inkscape:label="obdelnik"
     transform="translate(-36.365505,425.41449)">
    <path
       style="fill:#d0c100;fill-opacity:1;stroke:#000000;stroke-width:10;stroke-linecap:round;stroke-linejoin:round;stroke-miterlimit:4;stroke-opacity:1;stroke-dasharray:none;stroke-dashoffset:0;display:inline"
       d="m 160.723,913.13955 c 0,0 -161.9782571,149.71295 -106.263971,141.14155 55.714291,-8.5715 66.897751,38.4278 69.754891,75.5706 2.85715,37.1429 115.67223,-164.69178 115.67223,-164.69178"
       id="path3602"
       sodipodi:nodetypes="cssc" />
    <path
       style="fill:#d0c100;fill-opacity:1;stroke:#000000;stroke-width:10;stroke-linecap:round;stroke-linejoin:round;stroke-miterlimit:4;stroke-opacity:1;stroke-dasharray:none;stroke-dashoffset:0;display:inline"
       d="m 495.9849,413.18816 c 72.73099,-10.10153 207.08127,-94.19673 213.14219,-31.56727 6.06091,62.62946 -36.3655,109.09648 -42.42641,163.64472 -6.06092,54.54823 41.4347,56.20747 42.42641,145.46196 1.01016,90.91373 -51.26524,93.94419 -49.49748,140.66374 1.76777,46.71956 83.84266,89.65105 40.4061,110.86425 C 651.15509,966.12749 550.53314,920.0322 550.53314,920.0322 l -3.03046,1.01015 -191.92898,-272.74119 140.4112,-235.113 z"
       id="path3605"
       sodipodi:nodetypes="csssssc" />
  </g>
  <g
     inkscape:label="vypln"
     inkscape:groupmode="layer"
     id="layer1"
     style="display:inline"
     transform="translate(-36.365505,425.41449)">
    <path
       sodipodi:nodetypes="cscssscccccccccccccssccccsscscsccccccccccccccccccccccccccccccc"
       d="m 405,1389.1479 c -15.71428,31.7857 -135.31151,53.3037 -119.28572,40.3572 78.30942,-63.2627 25.71429,-125.7143 -54.28571,-120.0001 -108.57143,22.8572 -125.71428,74.2858 -105.71428,105.7143 28.20101,44.3158 116.0329,123.6731 204.28571,110.0001 101.42857,-15.7143 256.07027,-101.4519 245.71429,-257.143 -5.69533,-85.6232 -70.66838,-137.362 -147.88135,-177.2449 -13.03606,-45.391 -52.85246,-55.3387 -110.69008,-47.0407 C 285.69015,1009.5593 259.25144,971.6638 180,972.36218 162.71664,924.20088 132.04148,897.67247 90,889.50504 105.42601,833.86964 97.783631,782.30513 48.571429,738.07647 73.677207,691.47288 71.549525,642.77442 47.142857,592.36218 91.88657,562.3549 98.136147,516.94998 95.714286,468.07647 c 51.246584,-13.30238 72.081294,-47.1775 58.571424,-104.28572 62.95501,-9.73337 124.01707,-21.55383 114.28572,-111.42857 47.02373,8.93616 104.93118,-16.99874 107.14286,-92.85714 41.07237,-15.3202 99.6427,-7.89305 87.14285,-92.857144 35.37094,-24.342652 58.44325,-54.691615 12.85715,-118.571428 L 468.70057,-164.56618 C 487.01247,2.7418993 390.40345,8.3245581 321.04288,44.086363 224.82097,93.697684 248.41342,72.717263 196.8659,195.89641 166.27979,268.98568 147.48227,345.2554 147.48227,345.2554 c -25.63176,4.55289 -42.42339,-9.09772 -42.42339,-9.09772 -19.988824,15.50031 -52.905808,-8.03888 -38.986437,-25.71924 0,0 -20.588672,-6.26429 -27.686646,-26.80234 0,0 64.602373,-81.67268 67.967383,-165.925 C 110.2041,21.292687 44.951816,-43.653335 42.931496,-97.191415 40.911176,-150.72949 66.670065,-171.9427 66.670065,-171.9427 c 0,0 -29.465038,-50.95563 -14.899743,-83.59013 15.734177,-35.25345 85.610428,-25.50634 85.610428,-25.50634 1.08434,-15.18084 55.31132,-62.57976 131.71433,-98.70959 76.40301,-36.12982 61.84496,-32.70628 157.8098,-42.0428 28.77596,26.5477 64.66442,39.55872 115.23798,12.01088 17.4304,54.55161 47.43348,87.41535 102.85714,76.42858 -15.56834,69.53078 -4.77418,124.68202 52.85714,154.28571 -17.29173,58.09524 -60.82752,116.190476 7.85715,174.2857144 -29.17448,36.6098636 -57.94107,73.2411946 -16.42857,113.5714256 -45.96866,26.91302 -73.51305,60.32873 -55.00001,110 -68.5832,18.45899 -68.48261,67.82568 -62.14285,120 -22.45853,41.95773 -87.00655,54.01023 -44.28572,166.42857 -27.09193,60.70631 -65.55383,118.15529 2.85715,182.14286 -12.74278,78.90202 -29.53087,158.74314 61.42857,213.57143 0.13789,68.29548 -19.74751,142.08759 72.85714,184.99999 -19.03818,53.4607 6.45336,57.7044 21.42857,73.5714 -4.83545,26.4166 -17.11506,54.7922 12.5,72.1429 -13.04767,25.6918 -22.51432,51.1847 -1.78571,75 -22.91395,18.9665 -28.16724,46.084 -26.42857,76.4286 -38.86659,26.0714 -43.10167,52.1429 -52.85715,78.2143 -33.74667,13.9151 -48.88415,35.5839 -60,58.9285 -27.19649,11.5544 -58.20162,18.756 -72.85714,44.6429 -43.61958,2.0162 -70.47169,18.4694 -87.85714,29.2857 -56.36997,-16.6034 -79.63866,-2.6518 -113.21429,1.7857 -16.46112,-22.4535 -70.56315,-40.2836 -92.14286,-32.1428 -6.09355,-21.6931 -39.36581,-47.9636 -66.78571,-45.3572 -6.36749,-18.2803 -12.68758,-36.5854 -38.571428,-44.6428 0.395236,-26.081 -8.43009,-49.8568 -34.642858,-69.2858 7.763291,-19.6361 10.988298,-41.825 3.571429,-70 49.670897,-10.4224 52.503997,-42.49 57.499997,-59.6428 38.5643,4.8685 66.62105,-8.6513 90,-30.3572 27.65667,23.79 60.09274,26.6361 95.35715,17.1429 27.10311,35.2581 60.22955,49.4346 92.85714,65.3571 -13.74748,27.1105 -2.10136,47.0791 14.28571,65.7143"
       style="fill:#f8e700;fill-opacity:1;stroke:none;display:inline"
       id="path3668" />
    <path
       style="fill:#ff5deb;fill-opacity:1;stroke:none;display:inline"
       d="m 207.15625,-345.34375 c -42.20061,27.27759 -69.02239,53.68834 -69.78125,64.3125 0,0 -69.859573,-9.75345 -85.59375,25.5 -14.565295,32.6345 14.875,83.59375 14.875,83.59375 0,0 -25.73907,21.21193 -23.71875,74.75 2.02032,53.53808 67.25717,118.487837 63.40625,214.90625 C 102.97874,201.97107 38.375,283.625 38.375,283.625 c 7.097974,20.53805 27.6875,26.8125 27.6875,26.8125 -13.919371,17.68036 19.011176,41.21906 39,25.71875 0,0 16.77449,13.64664 42.40625,9.09375 0,0 18.82014,-76.25448 49.40625,-149.34375 51.54752,-123.179147 27.93434,-102.201179 124.15625,-151.8125 62.63598,-32.294656 147.49528,-40.0086073 149.875,-164.40625 -0.86809,-25.50633 -2.34375,-45.90625 -2.34375,-45.90625 L 547.15625,-180.5 c -0.76997,-57.54526 -34.12909,-91.82149 -60,-131.4375 L 410,-229.78125 c -51.88083,0.0509 -55.49822,-60.97681 -65.71875,-100.71875 -51.75096,26.47391 -94.42555,4.05665 -137.125,-14.84375 z"
       id="path3673" />
    <g
       id="g3679">
      <path
         d="m 265.71428,-124.78068 c 0,44.182782 -35.81722,80.000002 -80,80.000002 -44.18278,0 -80,-35.81722 -80,-80.000002 0,-44.18278 35.81722,-80 80,-80 44.18278,0 80,35.81722 80,80 z"
         sodipodi:ry="80"
         sodipodi:rx="80"
         sodipodi:cy="-124.78068"
         sodipodi:cx="185.71428"
         id="path3648"
         style="fill:#ffffff;fill-opacity:1;stroke:#000000;stroke-width:10;stroke-linecap:round;stroke-linejoin:round;stroke-miterlimit:4;stroke-opacity:1;stroke-dasharray:none;stroke-dashoffset:0"
         sodipodi:type="arc" />
      <path
         transform="translate(-7.8571431,-12.142857)"
         d="m 228.57143,-107.63782 c 0,18.935479 -15.35023,34.285716 -34.28571,34.285716 -18.93548,0 -34.28571,-15.350237 -34.28571,-34.285716 0,-18.93547 15.35023,-34.28571 34.28571,-34.28571 18.93548,0 34.28571,15.35024 34.28571,34.28571 z"
         sodipodi:ry="34.285713"
         sodipodi:rx="34.285713"
         sodipodi:cy="-107.63782"
         sodipodi:cx="194.28572"
         id="path3650"
         style="fill:#000000;fill-opacity:1;stroke:none"
         sodipodi:type="arc" />
    </g>
  </g>
  <g
     inkscape:groupmode="layer"
     id="layer4"
     inkscape:label="ploutvicky"
     transform="translate(-36.365505,425.41449)" />
  <g
     inkscape:groupmode="layer"
     id="layer2"
     inkscape:label="Kontura"
     style="display:inline"
     transform="translate(-36.365505,425.41449)">
    <path
       id="path3662"
       style="fill:none;stroke:#000000;stroke-width:10;stroke-linecap:round;stroke-linejoin:round;stroke-miterlimit:4;stroke-opacity:1;stroke-dasharray:none;stroke-dashoffset:0"
       d="M 468.82972,-162.92312 C 487.01247,2.7418993 390.40345,8.3245581 321.04288,44.086363 224.82097,93.697684 248.41342,72.717263 196.8659,195.89641 166.27979,268.98568 147.48227,345.2554 147.48227,345.2554 c -25.63176,4.55289 -42.42339,-9.09772 -42.42339,-9.09772 -19.988824,15.50031 -52.905808,-8.03888 -38.986437,-25.71924 0,0 -20.588672,-6.26429 -27.686646,-26.80234 0,0 64.602373,-81.67268 67.967383,-165.925 C 110.2041,21.292687 44.951816,-43.653335 42.931496,-97.191415 40.911176,-150.72949 66.670065,-171.9427 66.670065,-171.9427 c 0,0 -29.465038,-50.95563 -14.899743,-83.59013 15.734177,-35.25345 85.610428,-25.50634 85.610428,-25.50634 1.08434,-15.18084 55.31132,-62.57976 131.71433,-98.70959 76.40301,-36.12982 61.84496,-32.70628 157.8098,-42.0428 28.77596,26.5477 64.66442,39.55872 115.23798,12.01088 17.4304,54.55161 47.43348,87.41535 102.85714,76.42858 -15.56834,69.53078 -4.77418,124.68202 52.85714,154.28571 -17.29173,58.09524 -60.82752,116.190476 7.85715,174.2857144 -29.17448,36.6098636 -57.94107,73.2411946 -16.42857,113.5714256 -45.96866,26.91302 -73.51305,60.32873 -55.00001,110 -68.5832,18.45899 -68.48261,67.82568 -62.14285,120 -22.45853,41.95773 -87.00655,54.01023 -44.28572,166.42857 -27.09193,60.70631 -65.55383,118.15529 2.85715,182.14286 -12.74278,78.90202 -29.53087,158.74314 61.42857,213.57143 0.13789,68.29548 -19.74751,142.08759 72.85714,184.99999 -19.03818,53.4607 6.45336,57.7044 21.42857,73.5714 -4.83545,26.4166 -17.11506,54.7922 12.5,72.1429 -13.04767,25.6918 -22.51432,51.1847 -1.78571,75 -22.91395,18.9665 -28.16724,46.084 -26.42857,76.4286 -38.86659,26.0714 -43.10167,52.1429 -52.85715,78.2143 -33.74667,13.9151 -48.88415,35.5839 -60,58.9285 -27.19649,11.5544 -58.20162,18.756 -72.85714,44.6429 -43.61958,2.0162 -70.47169,18.4694 -87.85714,29.2857 -56.36997,-16.6034 -79.63866,-2.6518 -113.21429,1.7857 -16.46112,-22.4535 -70.56315,-40.2836 -92.14286,-32.1428 -6.09355,-21.6931 -39.36581,-47.9636 -66.78571,-45.3572 -6.36749,-18.2803 -12.68758,-36.5854 -38.571428,-44.6428 0.395236,-26.081 -8.43009,-49.8568 -34.642858,-69.2858 7.763291,-19.6361 10.988298,-41.825 3.571429,-70 49.670897,-10.4224 52.503997,-42.49 57.499997,-59.6428 38.5643,4.8685 66.62105,-8.6513 90,-30.3572 27.65667,23.79 60.09274,26.6361 95.35715,17.1429 27.10311,35.2581 60.22955,49.4346 92.85714,65.3571 -13.74748,27.1105 -2.10136,47.0791 14.28571,65.7143 M 405,1389.1479 c -15.71428,31.7857 -135.31151,53.3037 -119.28572,40.3572 78.30942,-63.2627 25.71429,-125.7143 -54.28571,-120.0001 -108.57143,22.8572 -125.71428,74.2858 -105.71428,105.7143 28.20101,44.3158 116.0329,123.6731 204.28571,110.0001 101.42857,-15.7143 256.07027,-101.4519 245.71429,-257.143 -5.69533,-85.6232 -70.66838,-137.362 -147.88135,-177.2449 -13.03606,-45.391 -52.85246,-55.3387 -110.69008,-47.0407 C 285.69015,1009.5593 259.25144,971.6638 180,972.36218 162.71664,924.20088 132.04148,897.67247 90,889.50504 105.42601,833.86964 97.783631,782.30513 48.571429,738.07647 73.677207,691.47288 71.549525,642.77442 47.142857,592.36218 91.88657,562.3549 98.136147,516.94998 95.714286,468.07647 c 51.246584,-13.30238 72.081294,-47.1775 58.571424,-104.28572 62.95501,-9.73337 124.01707,-21.55383 114.28572,-111.42857 47.02373,8.93616 104.93118,-16.99874 107.14286,-92.85714 41.07237,-15.3202 99.6427,-7.89305 87.14285,-92.857144 35.37094,-24.342652 58.44325,-54.691615 12.85715,-118.571428 l -7.14286,-114.285718 78.57143,-14.28571 c -0.76997,-57.54526 -34.12909,-91.81256 -60,-131.42857 L 410,-229.78068 c -51.88083,0.0509 -55.49376,-60.97234 -65.71429,-100.71428 -52.62199,26.9195 -95.14967,3.36742 -138.57142,-15.71429"
       sodipodi:nodetypes="cssccccsscscsccccccccccccccccccccccccccccccccscssscccccccccccccccccc" />
  </g>
  <g
     inkscape:groupmode="layer"
     id="layer5"
     inkscape:label="dekorace"
     transform="translate(-36.365505,425.41449)">
    <path
       style="color:#000000;fill:none;stroke:#000000;stroke-width:5;stroke-linecap:butt;stroke-linejoin:miter;stroke-miterlimit:4;stroke-opacity:1;stroke-dasharray:none;stroke-dashoffset:0;marker:none;visibility:visible;display:inline;overflow:visible;enable-background:accumulate"
       d="m 433.86052,-219.92495 c -1.01435,-0.89931 0.84179,-1.51523 1.01015,-2.0203 0.10648,-0.31944 -0.12505,-0.69752 0,-1.01016 0.22544,-0.56361 0.69784,-0.9947 1.01015,-1.51523 0.19369,-0.32281 0.31139,-0.68733 0.50508,-1.01015 0.31231,-0.52052 0.73868,-0.97229 1.01015,-1.51523 0.0753,-0.15058 -0.0753,-0.35449 0,-0.50507 0.0483,-0.0967 1.92363,-1.97197 2.02031,-2.02031 0.15058,-0.0753 0.35449,0.0753 0.50507,0 0.21296,-0.10648 0.29212,-0.39859 0.50508,-0.50507 0.47619,-0.2381 1.03904,-0.26699 1.51523,-0.50508 0.21296,-0.10648 0.29212,-0.3986 0.50508,-0.50508 0.15058,-0.0753 0.33671,0 0.50507,0 0.16836,0 0.33672,0 0.50508,0 0.84179,0 1.68359,0 2.52538,0 0.43769,0 1.72773,-0.0975 2.0203,0 1.13397,0.37799 1.37275,0.93891 2.52539,1.51523 0.15058,0.0753 0.33671,0 0.50507,0 1.01015,0 2.02031,0 3.03046,0 0.50508,0 1.06347,0.22588 1.51523,0 0.33672,-0.16836 0.31139,-0.68734 0.50507,-1.01015 0.31232,-0.52052 0.69784,-0.99471 1.01016,-1.51523 0.38737,-0.64563 0.5584,-1.41797 1.01015,-2.0203 0.28571,-0.38096 0.67343,-0.67344 1.01015,-1.01016 0.33672,-0.33671 0.67344,-0.67343 1.01015,-1.01015 0.33672,-0.33672 0.60183,-0.76515 1.01016,-1.01015 0.45652,-0.27392 0.99872,-0.37595 1.51523,-0.50508 0.16333,-0.0408 0.36499,0.0934 0.50507,0 0.39622,-0.26414 0.61394,-0.74601 1.01015,-1.01015 0.14009,-0.0934 0.33672,0 0.50508,0 0.33672,0 0.67344,0 1.01015,0 0.67344,0 1.34687,0 2.02031,0 0.33672,0 0.68349,0.0817 1.01015,0 0.36522,-0.0913 0.65301,-0.38603 1.01015,-0.50508 0.15972,-0.0532 0.365,0.0934 0.50508,0 0.56473,-0.37648 1.47056,-1.47056 2.02031,-2.0203 0.16835,-0.16836 0.29211,-0.3986 0.50507,-0.50508 0.30117,-0.15058 0.70898,0.15059 1.01015,0 0.21296,-0.10648 0.29212,-0.3986 0.50508,-0.50507 0.15058,-0.0753 0.35449,0.0753 0.50508,0 0.21296,-0.10648 0.33671,-0.33672 0.50507,-0.50508 0.16836,-0.16836 0.33672,-0.33672 0.50508,-0.50508 1.15806,-1.15805 -0.31944,0.21296 1.51523,-1.01015 0.19811,-0.13207 0.29212,-0.3986 0.50507,-0.50508 0.15059,-0.0753 0.3545,0.0753 0.50508,0 0.21296,-0.10648 0.29212,-0.39859 0.50508,-0.50507 0.30117,-0.15059 0.70898,0.15058 1.01015,0 1.36306,-0.68154 -0.0174,-0.22639 0.50508,-1.01016 0.26414,-0.39621 0.67343,-0.67343 1.01015,-1.01015 0.16836,-0.16836 0.42978,-0.2792 0.50507,-0.50507 0.10648,-0.31944 0,-0.67344 0,-1.01016 0,-0.16836 -0.0934,-0.36499 0,-0.50507 0.26415,-0.39622 0.74601,-0.61394 1.01016,-1.01016 0.0934,-0.14008 0,-0.33671 0,-0.50507 0,-0.68688 -0.272,-1.63177 0.50507,-2.02031 0.15059,-0.0753 0.33672,0 0.50508,0 0.31297,0 2.87243,0.079 3.03046,0 0.42591,-0.21296 0.61394,-0.74601 1.01015,-1.01015 0.28017,-0.18678 0.70898,0.15059 1.01015,0 0.21296,-0.10648 0.29212,-0.3986 0.50508,-0.50508 0.15058,-0.0753 0.35449,0.0753 0.50507,0 0.21296,-0.10647 0.33672,-0.33671 0.50508,-0.50507 0.16836,-0.16836 0.33672,-0.33672 0.50508,-0.50508 0.67343,-0.67343 1.34687,-1.34687 2.0203,-2.0203 0.33672,-0.33672 0.61394,-0.74601 1.01015,-1.01016 0.14009,-0.0934 0.3545,0.0753 0.50508,0 0.21296,-0.10648 0.29212,-0.39859 0.50508,-0.50507 2.32147,-1.16074 0.87922,0.13093 2.0203,-1.01015"
       id="path3689" />
    <path
       style="color:#000000;fill:none;stroke:#000000;stroke-width:5;stroke-linecap:butt;stroke-linejoin:miter;stroke-miterlimit:4;stroke-opacity:1;stroke-dasharray:none;stroke-dashoffset:0;marker:none;visibility:visible;display:inline;overflow:visible;enable-background:accumulate"
       d="m 451.53819,-197.70159 c 1.14108,0 -0.22588,0.0753 1.51523,-0.50508 0.31944,-0.10648 0.70898,0.15059 1.01015,0 0.21296,-0.10648 0.33672,-0.33672 0.50508,-0.50508 0.33671,-0.33671 0.67343,-0.67343 1.01015,-1.01015 0.33672,-0.33672 0.61394,-0.74601 1.01015,-1.01015 0.14008,-0.0934 0.34175,0.0408 0.50508,0 0.5165,-0.12913 1.0587,-0.23116 1.51523,-0.50508 0.40833,-0.24499 0.61393,-0.74601 1.01015,-1.01015 0.14008,-0.0934 0.34536,0.0532 0.50507,0 0.35715,-0.11905 0.65301,-0.38603 1.01016,-0.50508 0.15972,-0.0532 0.35449,0.0753 0.50507,0 0.26971,-0.13485 0.74045,-0.87529 1.01016,-1.01015 0.11598,-0.058 2.99084,-0.01 3.03045,0 0.23099,0.0577 0.27409,0.44733 0.50508,0.50508 0.49,0.1225 1.04628,-0.18758 1.51523,0 0.44213,0.17685 0.58423,0.79719 1.01015,1.01015 0.30117,0.15059 0.6755,-0.0372 1.01015,0 1.1832,0.13147 2.34995,0.3973 3.53554,0.50508 1.07584,0.0978 2.41532,0 3.53553,0 0.50508,0 1.02523,-0.1225 1.51523,0 0.46197,0.11549 0.58424,0.79719 1.01015,1.01015 0.0972,0.0486 2.49708,0.009 2.52538,0 2.2788,-0.7596 1.36258,-1.98513 2.52539,-3.53553 0.28571,-0.38096 0.67343,-0.67344 1.01015,-1.01016 0.16836,-0.16836 0.29212,-0.39859 0.50507,-0.50507 0.33735,-0.16868 2.62187,0.16343 3.03046,0 0.56361,-0.22545 0.97229,-0.73869 1.51523,-1.01016 0.15059,-0.0753 0.33672,0 0.50508,0 0.67343,-0.33671 1.39383,-0.5925 2.0203,-1.01015 0.39622,-0.26414 0.58424,-0.79719 1.01015,-1.01015 0.45176,-0.22588 1.01016,0 1.51523,0 1.51523,0 3.03046,0 4.54569,0 0.33672,0 0.67344,0 1.01015,0 0.16836,0 0.35449,0.0753 0.50508,0 0.42592,-0.21296 0.58423,-0.79719 1.01015,-1.01015 0.15059,-0.0753 0.33672,0 0.50508,0 0.16836,0 0.33672,0 0.50507,0 0.8418,0 1.68359,0 2.52539,0 0.84179,0 1.68358,0 2.52538,0 0.50507,0 1.02523,-0.1225 1.51523,0 0.23098,0.0577 0.26698,0.50507 0.50507,0.50507 0.2381,0 0.30697,-0.373 0.50508,-0.50507 0.31323,-0.20883 0.74395,-0.23888 1.01015,-0.50508 0.61518,-0.61517 0.23659,-1.12845 1.01015,-1.51523 0.15059,-0.0753 0.33672,0 0.50508,0 0.33672,0 0.67343,0 1.01015,0 1.17851,0 2.35702,0 3.53554,0"
       id="path3691" />
    <path
       style="fill:none;stroke:#000000;stroke-width:5;stroke-miterlimit:4;stroke-opacity:1;stroke-dasharray:none"
       d="m 541.44176,439.19959 c 3.03046,0 6.06092,0 9.09138,0 0.67343,0 1.38143,0.21296 2.0203,0 0.73784,-0.24595 3.30277,-3.79467 4.04061,-4.04061 0.63888,-0.21296 1.38143,0.21296 2.02031,0 0.48918,-0.16306 4.48825,-4.67576 5.05076,-5.05077 0.19744,-0.13162 4.58992,0 5.05076,0 2.69374,0 5.38748,0 8.08122,0 0.87539,0 3.45546,-0.19505 4.04061,0 0.71429,0.2381 1.30602,0.77206 2.02031,1.01016 0.31944,0.10648 0.67343,0 1.01015,0 0.67344,0 1.34687,0 2.02031,0 1.62451,0 5.74711,0.22066 7.07106,0 1.05031,-0.17505 2.02031,-0.67344 3.03046,-1.01016 1.01015,-0.33671 2.02031,-0.67343 3.03046,-1.01015 1.01015,-0.33672 2.07808,-0.53396 3.03046,-1.01015 0.42591,-0.21296 0.58423,-0.79719 1.01015,-1.01015 0.30117,-0.15059 0.67343,0 1.01015,0 0.33672,0 0.67344,0 1.01015,0 1.68359,0 3.36718,0 5.05077,0 4.71404,0 9.42809,0 14.14213,0 2.02031,0 4.07985,0.39621 6.06092,0 5.64636,-1.12928 2.66464,-2.40691 7.07107,-5.05077 0.0856,-0.0514 4.83526,0 5.05076,0 4.04061,0 8.08122,0 12.12183,0 0.69753,0 3.73349,0.15357 4.04061,0 0.42592,-0.21295 0.6292,-0.72443 1.01015,-1.01015 0.97124,-0.72843 1.98942,-1.39568 3.03046,-2.0203 0.64563,-0.38738 1.39383,-0.59251 2.0203,-1.01016 0.54203,-0.36134 4.01801,-3.9954 4.04062,-4.04061 0.96366,-1.92732 -1.15761,-1.94658 1.01015,-3.03045 0.6013,-0.30065 6.21721,0.21346 7.07107,0 4.99299,-1.24825 -2.11398,-1.01016 2.0203,-1.01016"
       id="path3695" />
    <path
       style="fill:none;stroke:#000000;stroke-width:5;stroke-linecap:round;stroke-linejoin:round;stroke-miterlimit:4;stroke-opacity:1;stroke-dasharray:none;stroke-dashoffset:0"
       d="m 550.53314,482.63615 c 0.67343,0.33671 1.30602,0.77205 2.0203,1.01015 0.63888,0.21296 1.34687,0 2.02031,0 2.0203,0 4.04061,0 6.06091,0 6.06092,0 12.12183,0 18.18275,0 2.69374,0 5.38748,0 8.08122,0 1.01015,0 2.07214,0.31944 3.03046,0 0.45175,-0.15059 0.67343,-0.67344 1.01015,-1.01015 0.67343,-0.67344 1.34687,-1.34687 2.0203,-2.02031 0.67344,-0.67343 1.49202,-1.22787 2.02031,-2.0203 0.41765,-0.62647 0.33672,-1.68359 1.01015,-2.02031 0.90351,-0.45175 2.02031,0 3.03046,0 2.35702,0 4.71404,0 7.07107,0 2.0203,0 4.04061,0 6.06091,0 0.67344,0 1.34687,0 2.02031,0 0.33672,0 0.72998,0.18678 1.01015,0 0.79243,-0.52828 1.22788,-1.49202 2.02031,-2.0203 0.42217,-0.28145 5.22945,0.27715 6.06091,0 0.45175,-0.15059 0.67344,-0.67344 1.01015,-1.01016 0.67344,-0.67343 1.22788,-1.49202 2.02031,-2.0203 0.28016,-0.18678 0.67343,0 1.01015,0 0.67344,-0.33672 1.41797,-0.5584 2.02031,-1.01015 0.7619,-0.57143 1.09636,-1.78932 2.0203,-2.02031 0.73044,-0.18261 1.32123,0.73053 2.02031,1.01015 9.28071,3.71229 -0.31564,-0.88385 4.04061,2.02031 5.32637,3.55092 -1.956,-1.79255 5.05076,1.01015 0.88426,0.35371 1.22788,1.49202 2.0203,2.02031 0.28017,0.18677 0.67344,0 1.01016,0 1.68358,0 3.36717,0 5.05076,0 5.05076,0 10.10152,0 15.15229,0"
       id="path3697" />
    <path
       style="fill:none;stroke:#000000;stroke-width:5;stroke-linecap:round;stroke-linejoin:round;stroke-miterlimit:4;stroke-opacity:1;stroke-dasharray:none;stroke-dashoffset:0"
       d="m 546.49253,538.19454 c 2.36898,0 -0.47619,-0.2381 2.0203,1.01015 0.28911,0.14455 4.51113,0 5.05076,0 2.69374,0 5.38749,0 8.08123,0 1.01015,0 2.07214,0.31944 3.03045,0 0.45176,-0.15059 0.58424,-0.79719 1.01016,-1.01015 0.80812,-0.40406 2.22233,0.40406 3.03045,0 1.08588,-0.54294 1.90324,-1.56942 3.03046,-2.02031 0.62527,-0.25011 1.34687,0 2.02031,0 0.33671,0 0.70898,0.15059 1.01015,0 0.42592,-0.21296 0.58423,-0.79719 1.01015,-1.01015 0.22641,-0.1132 3.80057,0 4.04061,0 2.35702,0 4.71405,0 7.07107,0 8.75465,0 17.50931,0 26.26397,0 0.0993,0 5.95674,0.0521 6.06091,0 0.85184,-0.42592 1.22788,-1.49202 2.02031,-2.02031 0.21119,-0.1408 4.90777,-0.0477 5.05076,0 0.71428,0.2381 1.30602,0.77206 2.0203,1.01016 0.31944,0.10648 0.72999,-0.18678 1.01016,0 0.79242,0.52828 1.22787,1.49202 2.0203,2.0203 0.28017,0.18678 0.67344,0 1.01015,0 0.67344,0 1.38143,-0.21296 2.02031,0 0.45175,0.15059 0.5584,0.85957 1.01015,1.01015 1.00416,0.33472 4.19243,-0.42916 5.05076,0 4.5168,2.2584 0.26946,2.02031 3.03046,2.02031"
       id="path3699" />
    <path
       style="fill:none;stroke:#000000;stroke-width:5;stroke-linecap:round;stroke-linejoin:round;stroke-miterlimit:4;stroke-opacity:1;stroke-dasharray:none;stroke-dashoffset:0"
       d="m 528.30978,576.58033 c 4.27262,0.51074 3.42963,2.87772 8.08122,4.04061 1.30666,0.32667 2.70728,-0.19047 4.04061,0 1.05409,0.15059 1.99746,0.75191 3.03046,1.01016 0.32666,0.0817 0.67343,0 1.01015,0 1.01015,0 2.02031,0 3.03046,0 0.56382,0 4.58835,-0.15414 5.05076,0 0.90351,0.30117 1.16847,1.59438 2.02031,2.0203 0.30117,0.15059 0.67343,0 1.01015,0 0.33672,0 0.67343,0 1.01015,0 2.02031,0 4.04061,0 6.06092,0 0.67343,0 1.34687,0 2.0203,0 0.33672,0 0.70899,-0.15058 1.01016,0 0.42591,0.21296 0.58423,0.7972 1.01015,1.01015 0.2264,0.11321 3.80057,0 4.04061,0 3.36717,0 6.73435,0 10.10152,0 9.09138,0 18.18275,0 27.27412,0 1.68359,0 3.36718,0 5.05077,0 1.01015,0 2.07214,0.31944 3.03045,0 0.45176,-0.15058 0.5584,-0.85956 1.01016,-1.01015 0.46241,-0.15414 4.48693,0 5.05076,0 1.04881,0 3.18541,-0.2138 4.04061,0 1.033,0.25825 2.1174,0.46232 3.03046,1.01015 0.81666,0.49 1.34687,1.34687 2.0203,2.02031 0.33672,0.33672 0.5584,0.85957 1.01015,1.01015 0.63888,0.21296 1.34687,0 2.02031,0 2.0203,0 4.04061,0 6.06091,0 1.01016,0 2.05047,-0.245 3.03046,0 4.87797,1.21949 -0.0501,0.48005 3.03046,2.02031 0.30117,0.15058 0.69071,-0.10648 1.01015,0 0.71429,0.23809 1.30602,0.77205 2.02031,1.01015 0.31943,0.10648 0.67343,0 1.01015,0 0.67343,0 1.34687,0 2.0203,0"
       id="path3701" />
    <path
       style="fill:none;stroke:#000000;stroke-width:5;stroke-linecap:round;stroke-linejoin:round;stroke-miterlimit:4;stroke-opacity:1;stroke-dasharray:none;stroke-dashoffset:0"
       d="m 533.36054,640.21994 c 2.35703,-2.35702 4.71405,-4.71404 7.07107,-7.07106 0.67344,-0.67344 1.49202,-1.22788 2.02031,-2.02031 1.04502,-1.56753 -1.71598,-0.65724 1.01015,-2.0203 0.22641,-0.11321 3.80057,0 4.04061,0 2.0203,0 4.04061,0 6.06091,0 1.01016,0 2.09256,-0.37517 3.03046,0 2.25444,0.90177 3.88916,2.95472 6.06092,4.04061 0.30117,0.15058 0.69071,-0.10648 1.01015,0 0.71429,0.23809 1.30602,0.77205 2.02031,1.01015 3.03045,1.01015 -2.02031,-2.02031 3.03045,0 1.12722,0.45089 1.94458,1.47736 3.03046,2.0203 0.6349,0.31746 3.40571,-0.31745 4.04061,0 0.42592,0.21296 0.58424,0.7972 1.01015,1.01016 0.30117,0.15058 0.67344,0 1.01016,0 1.34687,0 2.71206,-0.22143 4.04061,0 2.73423,-1.71683 2.61203,1.54411 4.04061,2.0203 0.63887,0.21296 1.35603,-0.11071 2.0203,0 1.36943,0.22824 2.67118,0.78192 4.04061,1.01015 1.32855,0.22143 2.69374,0 4.04061,0 0.36576,0 5.35316,0.17694 6.06092,0 0.73044,-0.18261 1.30602,-0.77205 2.0203,-1.01015 0.63888,-0.21296 1.41797,0.30117 2.02031,0 0.42591,-0.21296 0.58423,-0.79719 1.01015,-1.01015 0.30117,-0.15059 0.67343,0 1.01015,0 0.33672,0 0.67344,0 1.01015,0 1.68359,0 3.36718,0 5.05077,0 2.0203,0 4.04061,0 6.06091,0 1.01016,0 2.07215,-0.31944 3.03046,0 0.45175,0.15058 0.53396,1.01015 1.01015,1.01015 1.65616,0 4.87167,-3.86151 6.06092,-5.05076 0.33672,-0.33672 0.58423,-0.79719 1.01015,-1.01015 0.22641,-0.11321 3.80057,0 4.04061,0 2.35702,0 4.71405,0 7.07107,0 0.67343,0 1.41797,-0.30117 2.0203,0 1.50585,0.75292 2.72595,1.97873 4.04061,3.03045 0.37185,0.29748 0.7972,0.58424 1.01016,1.01016 0.30185,0.6037 -0.66498,2.0203 1.01015,2.0203 0.75292,0 1.30602,-0.77206 2.0203,-1.01015 0.63888,-0.21296 1.34687,0 2.02031,0 1.68359,0 3.36717,0 5.05076,0 1.01015,0 2.07214,0.31944 3.03046,0 0.90351,-0.30117 1.16847,-1.59439 2.0203,-2.02031 0.30117,-0.15058 0.67344,0 1.01016,0 0.33671,0 0.67343,0 1.01015,0"
       id="path3703" />
    <path
       style="fill:none;stroke:#000000;stroke-width:5;stroke-linecap:round;stroke-linejoin:round;stroke-miterlimit:4;stroke-opacity:1;stroke-dasharray:none;stroke-dashoffset:0"
       d="m 561.64482,682.64635 c 2.0203,0 4.04061,0 6.06091,0 0.67344,0 1.38143,0.21296 2.02031,0 0.45175,-0.15058 0.58423,-0.79719 1.01015,-1.01015 0.2692,-0.1346 5.60393,0 6.06091,0 2.69374,0 5.38748,0 8.08122,0 1.01016,0 2.03405,-0.16607 3.03046,0 1.05031,0.17505 1.97637,0.85957 3.03046,1.01015 1.33333,0.19048 2.69374,0 4.04061,0 1.01015,0 2.0203,0 3.03046,0 2.69374,0 5.38748,0 8.08122,0 1.0488,0 3.18541,-0.2138 4.04061,0 1.033,0.25825 1.98634,0.80133 3.03046,1.01015 0.66035,0.13208 1.34687,0 2.0203,0 1.72184,0 1.80735,-0.10648 4.04061,1.01016 0.85184,0.42591 1.22788,1.49202 2.02031,2.0203 0.62647,0.41765 1.41796,0.5584 2.0203,1.01015 2.2069,1.65518 2.08435,3.05181 5.05076,4.04061 0.95832,0.31944 2.03992,-0.1981 3.03046,0 0.7383,0.14766 1.30602,0.77206 2.02031,1.01016 0.50785,0.16928 5.79707,0 6.06091,0 0.65123,0 3.82357,0.14469 4.04061,0 0.79243,-0.52829 1.34687,-1.34687 2.02031,-2.02031 0.67343,-0.67343 1.34687,-1.34687 2.0203,-2.0203 2.02031,-2.02031 4.04061,-4.04061 6.06092,-6.06092 0.67343,-0.67343 1.34687,-1.34687 2.0203,-2.0203 0.33672,-0.33672 0.58424,-0.7972 1.01015,-1.01016 0.30117,-0.15058 0.67344,0 1.01016,0 0.33671,0 0.67343,0 1.01015,0 1.18722,0 5.14784,-0.22827 6.06091,0 1.03301,0.25825 1.98635,0.80133 3.03046,1.01016 0.66036,0.13207 1.34687,0 2.02031,0 1.34687,0 2.69374,0 4.04061,0 4.04061,0 8.08122,0 12.12183,0"
       id="path3705" />
    <path
       style="fill:none;stroke:#000000;stroke-width:5;stroke-linecap:round;stroke-linejoin:round;stroke-miterlimit:4;stroke-opacity:1;stroke-dasharray:none;stroke-dashoffset:0"
       d="m 558.61436,732.14383 c 1.93456,0.4353 4.1043,-0.32611 6.06091,0 1.36944,0.22823 2.67118,0.78191 4.04061,1.01015 0.66428,0.11071 1.39504,-0.25011 2.02031,0 1.12722,0.45089 1.94457,1.47736 3.03046,2.0203 0.30117,0.15059 0.67997,-0.066 1.01015,0 1.36136,0.27228 2.67925,0.73788 4.04061,1.01016 1.13778,0.22755 2.95438,0 4.04061,0 1.34687,0 2.74556,0.37001 4.04061,0 3.12657,-0.89331 3.39955,-1.37925 5.05076,-3.03046 0.33672,-0.33672 0.58424,-0.7972 1.01015,-1.01015 2.65919,-1.3296 3.22703,-1.01016 6.06092,-1.01016 2.69374,0 5.38748,0 8.08122,0 1.01015,0 2.03992,-0.1981 3.03046,0 1.04411,0.20883 1.99745,0.75191 3.03046,1.01016 0.95073,0.23768 2.07972,-0.23769 3.03045,0 0.73045,0.18261 1.28986,0.82754 2.02031,1.01015 0.65333,0.16333 1.34687,0 2.0203,0 1.68359,0 3.36718,0 5.05077,0 5.05076,0 10.10152,0 15.15228,0 0.12443,0 6.94972,-0.0809 7.07107,0 0.79243,0.52828 1.22788,1.49202 2.02031,2.0203 0.29784,0.19857 5.35058,0 6.06091,0"
       id="path3707" />
    <path
       style="fill:none;stroke:#000000;stroke-width:5;stroke-linecap:round;stroke-linejoin:round;stroke-miterlimit:4;stroke-opacity:1;stroke-dasharray:none;stroke-dashoffset:0"
       d="m 550.53314,777.60069 c 2.35702,0 4.71404,0 7.07107,0 0.67343,0 1.36697,0.16333 2.0203,0 0.73044,-0.18261 1.30602,-0.77206 2.02031,-1.01015 0.31943,-0.10648 0.72998,0.18678 1.01015,0 0.79243,-0.52829 1.22787,-1.49202 2.0203,-2.02031 0.28017,-0.18677 0.67344,0 1.01016,0 0.33671,0 0.67343,0 1.01015,0 0.56382,0 4.58835,-0.15413 5.05076,0 0.45175,0.15059 0.5584,0.85957 1.01015,1.01016 1.51523,0.50507 3.53554,-0.50508 5.05077,0 0.9035,0.30116 1.16847,1.59438 2.0203,2.0203 0.22641,0.1132 3.80057,0 4.04061,0 2.35702,0 4.71405,0 7.07107,0 1.01015,0 2.03992,-0.19811 3.03046,0 0.7383,0.14766 1.30602,0.77206 2.0203,1.01015 0.31944,0.10648 0.72999,-0.18677 1.01015,0 0.79243,0.52829 1.22788,1.49202 2.02031,2.02031 0.28017,0.18678 0.67343,0 1.01015,0 0.67344,0 1.36698,-0.16333 2.02031,0 0.73044,0.18261 1.28986,0.82754 2.0203,1.01015 0.68362,0.1709 6.42103,0 7.07107,0 0.69753,0 3.73349,0.15356 4.04061,0 0.42592,-0.21296 0.58423,-0.79719 1.01015,-1.01015 0.64076,-0.32038 4.39455,0.32811 5.05077,0 0.42591,-0.21296 0.58423,-0.7972 1.01015,-1.01015 0.30117,-0.15059 0.67343,0 1.01015,0 1.01015,0 2.05047,-0.245 3.03046,0 0.73044,0.18261 1.30602,0.77205 2.0203,1.01015 1.21263,0.40421 0.80768,-0.40421 2.02031,0 0.71428,0.23809 1.30602,0.77206 2.0203,1.01015 0.66812,0.2227 5.06858,0 6.06092,0 4.04061,0 8.08122,0 12.12183,0"
       id="path3711" />
    <path
       style="fill:none;stroke:#000000;stroke-width:5;stroke-linecap:round;stroke-linejoin:round;stroke-miterlimit:4;stroke-opacity:1;stroke-dasharray:none;stroke-dashoffset:0"
       d="m 559.62451,816.99664 c 3.7742,-0.14869 7.57673,0.75732 11.11168,-1.01015 1.08588,-0.54294 1.94457,-1.47737 3.03046,-2.02031 0.30117,-0.15058 0.69071,0.10648 1.01015,0 0.71428,-0.23809 1.30602,-0.77206 2.0203,-1.01015 0.31944,-0.10648 0.70899,0.15058 1.01016,0 0.85183,-0.42592 1.16847,-1.59439 2.0203,-2.02031 0.34225,-0.17112 5.88188,0 7.07107,0 0.56382,0 4.58835,-0.15413 5.05076,0 2.01015,0.67006 0.47141,0.94281 1.01015,2.02031 0.21296,0.42592 0.67344,0.67343 1.01016,1.01015 0.67343,0.67344 1.34687,1.34687 2.0203,2.02031 0.33672,0.33671 0.5584,0.85956 1.01015,1.01015 0.63888,0.21296 1.36698,-0.16333 2.02031,0 8.38009,2.09502 -11.03944,0.42692 8.08122,2.0203 2.01333,0.16778 4.04061,0 6.06092,0 3.03045,0 6.06091,0 9.09137,0 1.08515,0 5.60346,-0.18298 6.06091,0 1.07601,0.43041 2.90599,3.4733 4.04061,4.04061 4.64295,2.32148 1.75844,-0.26186 4.04061,2.02031"
       id="path3713" />
    <path
       style="fill:none;stroke:#000000;stroke-width:5;stroke-linecap:round;stroke-linejoin:round;stroke-miterlimit:4;stroke-opacity:1;stroke-dasharray:none;stroke-dashoffset:0"
       d="m 576.7971,858.41289 c 3.19882,0 6.39764,0 9.59645,0 0.59361,0 2.57392,-0.11413 3.03046,0 3.98265,0.99567 -1.08444,-0.13073 3.03046,1.51523 0.84179,0.33672 0.84179,-0.16836 1.51523,0 0.5165,0.12913 0.99317,0.40067 1.51523,0.50508 0.33017,0.066 0.69071,-0.10648 1.01015,0 0.45175,0.15058 0.58423,0.79719 1.01015,1.01015 0.15059,0.0753 0.35449,-0.0753 0.50508,0 0.21296,0.10648 0.2792,0.42979 0.50507,0.50508 0.31944,0.10648 0.69752,-0.12506 1.01016,0 0.56361,0.22544 0.97228,0.73868 1.51522,1.01015 0.15059,0.0753 0.33672,0 0.50508,0 0.33672,0 0.67344,0 1.01015,0 1.17851,0 2.35703,0 3.53554,0 0.33672,0 0.67343,0 1.01015,0 0.16836,0 0.34536,-0.0532 0.50508,0 1.06066,0.35355 1.96979,1.16168 3.03045,1.51523 0.31944,0.10648 0.70899,-0.15059 1.01016,0 0.21296,0.10648 0.33671,0.33672 0.50507,0.50508 0.33672,0.33671 0.67344,0.67343 1.01016,1.01015 0.33671,0.33672 0.746,0.61394 1.01015,1.01015 0.20882,0.31324 0.29625,0.69692 0.50507,1.01015 0.26415,0.39622 0.85957,0.5584 1.01016,1.01016 0.10648,0.31943 -0.10648,0.69071 0,1.01015 0.2874,0.86222 0.50507,0.33672 1.01015,0.50507 0.35714,0.11905 0.65301,0.38603 1.01015,0.50508 0.29258,0.0975 1.58262,0 2.02031,0 1.01015,0 2.0203,0 3.03045,0 0.33672,0 0.67344,0 1.01016,0 0.16836,0 0.34174,0.0408 0.50507,0 0.5165,-0.12912 0.99317,-0.40066 1.51523,-0.50508 0.79449,-0.15889 1.73969,0.19643 2.52538,0 1.92866,-0.48216 0.20398,-0.8596 1.51523,-1.51522 0.15059,-0.0753 0.34536,0.0532 0.50508,0 0.35714,-0.11905 0.65301,-0.38603 1.01015,-0.50508 0.15972,-0.0532 0.35449,0.0753 0.50508,0 0.54294,-0.27147 0.95162,-0.78471 1.51523,-1.01015 0.31263,-0.12506 0.67343,0 1.01015,0 0.61159,0 1.45134,-0.1138 2.0203,0 0.68068,0.13613 1.33963,0.36894 2.02031,0.50507 0.16509,0.033 0.35449,-0.0753 0.50508,0 0.21295,0.10648 0.33671,0.33672 0.50507,0.50508 0.50508,0.50508 1.01015,1.01015 1.51523,1.51523 0.33672,0.33672 0.61394,0.74601 1.01015,1.01015 0.31324,0.20882 0.70899,0.2792 1.01016,0.50508 0.38095,0.28571 0.60182,0.76515 1.01015,1.01015 0.45652,0.27392 1.0587,0.23116 1.51523,0.50508 0.40833,0.24499 0.67343,0.67343 1.01015,1.01015 0.84179,0.84179 1.68359,1.68359 2.52538,2.52538 0.16836,0.16836 0.29212,0.3986 0.50508,0.50508 0.15356,0.0768 1.67154,0 2.0203,0 1.85195,0 3.70389,0 5.55584,0"
       id="path3719" />
    <path
       style="fill:none;stroke:#000000;stroke-width:5;stroke-linecap:round;stroke-linejoin:round;stroke-miterlimit:4;stroke-opacity:1;stroke-dasharray:none;stroke-dashoffset:0"
       d="m 611.64737,909.4256 c 0.16836,0.16836 0.30697,0.373 0.50507,0.50507 0.46138,0.30759 1.22572,0.43113 1.51523,1.01016 0.15873,0.31745 -0.15872,1.70285 0,2.0203 0.10648,0.21296 0.3986,0.29212 0.50508,0.50508 0.0753,0.15058 -0.0753,0.35449 0,0.50507 0.10648,0.21296 0.33672,0.33672 0.50507,0.50508 0.16836,0.16836 0.2792,0.42978 0.50508,0.50508 0.31552,0.10517 3.76907,0 4.04061,0 0.67344,0 1.34687,0 2.02031,0 0.33671,0 0.67343,0 1.01015,0 0.16836,0 0.34174,0.0408 0.50507,0 0.51651,-0.12913 0.99318,-0.40067 1.51523,-0.50508 0.33018,-0.066 0.68349,0.0817 1.01016,0 2.32147,-0.58037 0.11459,-0.50508 1.51522,-0.50508 1.68359,0 3.36718,0 5.05077,0 0.59361,0 2.57392,-0.11413 3.03046,0 0.5165,0.12913 0.99872,0.37595 1.51522,0.50508 0.16334,0.0408 0.34175,-0.0408 0.50508,0 0.5165,0.12913 0.99317,0.40066 1.51523,0.50508 3.53553,0.7071 -3.53553,-1.76777 3.53553,0 0.5889,0.14722 0.93936,0.81819 1.51523,1.01015 0.47916,0.15972 1.01015,0 1.51523,0 1.17851,0 2.35702,0 3.53553,0 2.02031,0 4.04061,0 6.06092,0 0.59361,0 2.57392,-0.11414 3.03046,0 0.5165,0.12912 0.99317,0.40066 1.51523,0.50508 0.49526,0.0991 1.02523,-0.1225 1.51523,0 4.20401,1.051 -0.60969,-0.0349 2.52538,1.01015 0.15972,0.0532 0.33671,0 0.50507,0 0.33672,0.16836 0.65301,0.38603 1.01016,0.50507 0.15971,0.0532 0.37038,-0.10101 0.50507,0 0.95238,0.71429 1.573,1.8111 2.52538,2.52539 0.1801,1.24072 1.07225,0.20975 1.51523,0.50507 0.39622,0.26414 0.61394,0.74601 1.01015,1.01015 0.0133,0.009 2.01403,0.002 2.02031,0 0.36522,-0.0913 0.65301,-0.38602 1.01015,-0.50507 0.47916,-0.15972 1.02523,0.1225 1.51523,0 2.43899,-0.60975 -0.025,-0.24002 1.51523,-1.01015 0.15058,-0.0753 0.33672,0 0.50508,0 0.16835,0 0.33671,0 0.50507,0 1.05296,0 2.07298,0.13324 3.03046,-0.50508 0.14008,-0.0934 -0.0753,-0.35449 0,-0.50508 0.10844,-0.21688 2.00772,-2.01191 2.0203,-2.0203 0.14009,-0.0934 0.33672,0 0.50508,0 0.16836,0 0.33672,0 0.50508,0"
       id="path3721" />
    <path
       style="fill:none;stroke:#000000;stroke-width:5;stroke-linecap:round;stroke-linejoin:round;stroke-miterlimit:4;stroke-opacity:1;stroke-dasharray:none;stroke-dashoffset:0"
       d="M 74.246212,1035.6947 154.55334,951.852"
       id="path3723" />
    <path
       style="fill:none;stroke:#000000;stroke-width:5;stroke-linecap:round;stroke-linejoin:round;stroke-miterlimit:4;stroke-opacity:1;stroke-dasharray:none;stroke-dashoffset:0"
       d="m 108.08632,1046.3013 c 32.82996,-24.2437 59.09393,-72.22594 59.09393,-72.22594"
       id="path3725" />
    <path
       style="fill:none;stroke:#000000;stroke-width:5;stroke-linecap:round;stroke-linejoin:round;stroke-miterlimit:4;stroke-opacity:1;stroke-dasharray:none;stroke-dashoffset:0"
       d="m 133.84521,1098.8292 c 12.62691,-42.9315 54.54824,-110.6117 54.54824,-110.6117"
       id="path3727" />
    <path
       style="fill:none;stroke:#000000;stroke-width:5;stroke-linecap:round;stroke-linejoin:round;stroke-miterlimit:4;stroke-opacity:1;stroke-dasharray:none;stroke-dashoffset:0"
       d="m 267.85714,1526.6479 c 57.14286,17.8571 107.14286,17.8571 130,12.8571 22.85715,-5 101.34311,-28.1418 146.42858,-72.1428 53.41106,-52.1263 75.71428,-80.7143 82.14285,-131.4286 6.42857,-50.7143 -3.57143,-122.8571 -3.57143,-122.8571 -9.47641,-95.1314 -20.66771,-103.7862 -80.71428,-130.7143 C 530.29708,1010.5747 493.98588,959.62819 430.71429,931.6479 435.28053,829.81896 383.1683,801.12352 330,773.79075 382.41146,699.5474 352.37111,642.13095 312.85714,586.6479 c 77.31538,-38.42073 89.96907,-115.11063 74.28572,-208.57143 71.01492,-25.50087 110.17042,-74.77681 98.57143,-151.42857 37.56866,-20.52658 67.87801,-48.31247 71.42857,-102.85715 16.67926,-23.861358 34.90347,-45.736344 25.71428,-102.857139 22.06705,-32.504712 35.64174,-66.117124 14.28572,-104.285715 4.70594,-19.495766 19.00095,-34.729736 -8.57143,-68.571426"
       id="path3729"
       sodipodi:nodetypes="csssccccccccccc" />
    <path
       style="fill:none;stroke:#000000;stroke-width:5;stroke-linecap:round;stroke-linejoin:round;stroke-miterlimit:4;stroke-opacity:1;stroke-dasharray:none;stroke-dashoffset:0"
       d="m 312.85714,1022.3622 c 18.55063,-58.77654 -25.96161,-83.15515 -68.57143,-108.57145 14.95924,-74.65894 -30.73044,-97.33309 -51.42857,-141.42857 46.69691,-88.24409 12.05966,-113.68662 -1.42857,-164.28571 54.56288,-34.42378 67.3253,-80.34269 45.71429,-135.71429 51.52573,-32.90332 86.57807,-117.00097 77.5,-195.35714"
       id="path3731"
       sodipodi:nodetypes="cccccc" />
    <path
       style="fill:none;stroke:#000000;stroke-width:5;stroke-linecap:round;stroke-linejoin:round;stroke-miterlimit:4;stroke-opacity:1;stroke-dasharray:none;stroke-dashoffset:0"
       d="m 309.28571,1540.9336 c -5.03801,13.044 -10.56792,25.8988 -3.57142,43.5714"
       id="path3733"
       sodipodi:nodetypes="cc" />
    <path
       style="fill:none;stroke:#000000;stroke-width:5;stroke-linecap:round;stroke-linejoin:round;stroke-miterlimit:4;stroke-opacity:1;stroke-dasharray:none;stroke-dashoffset:0"
       d="m 414.28571,1534.505 c -0.52152,15.6585 5.64238,28.7456 17.5,39.6429"
       id="path3737"
       sodipodi:nodetypes="cc" />
    <path
       style="fill:none;stroke:#000000;stroke-width:5;stroke-linecap:round;stroke-linejoin:round;stroke-miterlimit:4;stroke-opacity:1;stroke-dasharray:none;stroke-dashoffset:0"
       d="m 493.92857,1504.8622 c 5.48158,10.3213 11.72444,20.1581 27.5,23.9286"
       id="path3739"
       sodipodi:nodetypes="cc" />
    <path
       style="fill:none;stroke:#000000;stroke-width:5;stroke-linecap:round;stroke-linejoin:round;stroke-miterlimit:4;stroke-opacity:1;stroke-dasharray:none;stroke-dashoffset:0"
       d="m 570,1443.7908 c 6.01782,13.1331 21.93758,17.2645 38.21429,21.0714"
       id="path3741"
       sodipodi:nodetypes="cc" />
    <path
       style="fill:none;stroke:#000000;stroke-width:5;stroke-linecap:round;stroke-linejoin:round;stroke-miterlimit:4;stroke-opacity:1;stroke-dasharray:none;stroke-dashoffset:0"
       d="m 628.21429,1329.505 c 14.7619,8.0363 29.52381,8.7274 44.28571,5.3572"
       id="path3743"
       sodipodi:nodetypes="cc" />
    <path
       style="fill:none;stroke:#000000;stroke-width:5;stroke-linecap:round;stroke-linejoin:round;stroke-miterlimit:4;stroke-opacity:1;stroke-dasharray:none;stroke-dashoffset:0"
       d="m 625.35714,1233.7908 c 19.80352,1.9532 39.62257,3.6579 60.35715,-9.2858"
       id="path3745"
       sodipodi:nodetypes="cc" />
    <path
       style="fill:none;stroke:#000000;stroke-width:5;stroke-linecap:round;stroke-linejoin:round;stroke-miterlimit:4;stroke-opacity:1;stroke-dasharray:none;stroke-dashoffset:0"
       d="m 612.14286,1142.3622 c 21.75248,5.4642 35.60614,-0.6159 45,-13.2143"
       id="path3747"
       sodipodi:nodetypes="cc" />
    <path
       style="fill:none;stroke:#000000;stroke-width:5;stroke-linecap:round;stroke-linejoin:round;stroke-miterlimit:4;stroke-opacity:1;stroke-dasharray:none;stroke-dashoffset:0"
       d="m 538.57143,1040.2193 c 21.14577,2.4274 38.61592,-1.1182 52.14286,-11.0714"
       id="path3749"
       sodipodi:nodetypes="cc" />
    <path
       style="fill:none;stroke:#000000;stroke-width:5;stroke-linecap:round;stroke-linejoin:round;stroke-miterlimit:4;stroke-opacity:1;stroke-dasharray:none;stroke-dashoffset:0"
       d="m 475.35714,939.1479 c 51.23457,11.54853 78.89045,-3.73386 102.85715,-23.21429"
       id="path3751"
       sodipodi:nodetypes="cc" />
    <path
       style="fill:none;stroke:#000000;stroke-width:5;stroke-linecap:round;stroke-linejoin:round;stroke-miterlimit:4;stroke-opacity:1;stroke-dasharray:none;stroke-dashoffset:0"
       d="m 381.42857,782.36218 c 19.64822,27.69197 136.42454,-0.36723 128.57143,-20"
       id="path3753"
       sodipodi:nodetypes="cc" />
    <path
       style="fill:none;stroke:#000000;stroke-width:5;stroke-linecap:round;stroke-linejoin:round;stroke-miterlimit:4;stroke-opacity:1;stroke-dasharray:none;stroke-dashoffset:0"
       d="m 357.14286,615.21933 c 43.22342,24.59682 84.86923,26.3182 124.28571,-4.28572"
       id="path3755"
       sodipodi:nodetypes="cc" />
    <path
       style="fill:none;stroke:#000000;stroke-width:5;stroke-linecap:round;stroke-linejoin:round;stroke-miterlimit:4;stroke-opacity:1;stroke-dasharray:none;stroke-dashoffset:0"
       d="m 398.57143,406.6479 c 26.61403,35.664 63.45046,37.93483 104.28571,27.14285"
       id="path3757"
       sodipodi:nodetypes="cc" />
    <path
       style="fill:none;stroke:#000000;stroke-width:5;stroke-linecap:round;stroke-linejoin:round;stroke-miterlimit:4;stroke-opacity:1;stroke-dasharray:none;stroke-dashoffset:0"
       d="m 495.71429,248.79075 c 18.20217,16.88527 35.19224,35.79071 70,25"
       id="path3759"
       sodipodi:nodetypes="cc" />
    <path
       style="fill:none;stroke:#000000;stroke-width:5;stroke-linecap:round;stroke-linejoin:round;stroke-miterlimit:4;stroke-opacity:1;stroke-dasharray:none;stroke-dashoffset:0"
       d="m 570.71429,133.79075 c 14.49095,17.00143 31.78636,27.3153 58.57142,15"
       id="path3761"
       sodipodi:nodetypes="cc" />
    <path
       style="fill:none;stroke:#000000;stroke-width:5;stroke-linecap:round;stroke-linejoin:round;stroke-miterlimit:4;stroke-opacity:1;stroke-dasharray:none;stroke-dashoffset:0"
       d="m 602.85714,22.362182 c 20.46509,16.445372 43.12674,13.853963 66.42857,5.714285"
       id="path3763"
       sodipodi:nodetypes="cc" />
    <path
       style="fill:none;stroke:#000000;stroke-width:5;stroke-linecap:round;stroke-linejoin:round;stroke-miterlimit:4;stroke-opacity:1;stroke-dasharray:none;stroke-dashoffset:0"
       d="m 609.28571,-81.209247 c 14.49631,4.866537 27.55012,11.934789 50.71429,3.571428"
       id="path3765"
       sodipodi:nodetypes="cc" />
    <path
       style="fill:none;stroke:#000000;stroke-width:5;stroke-linecap:round;stroke-linejoin:round;stroke-miterlimit:4;stroke-opacity:1;stroke-dasharray:none;stroke-dashoffset:0"
       d="m 446.42857,1088.0765 c 28.19811,0.4496 56.24832,-0.4319 80.71429,-33.5715"
       id="path3767"
       sodipodi:nodetypes="cc" />
    <path
       style="fill:none;stroke:#000000;stroke-width:5;stroke-linecap:round;stroke-linejoin:round;stroke-miterlimit:4;stroke-opacity:1;stroke-dasharray:none;stroke-dashoffset:0"
       d="m 332.14286,1018.0765 c 43.23794,-2.3622 80.04878,-16.2932 104.28571,-52.85717"
       id="path3769"
       sodipodi:nodetypes="cc" />
    <path
       style="fill:none;stroke:#000000;stroke-width:5;stroke-linecap:round;stroke-linejoin:round;stroke-miterlimit:4;stroke-opacity:1;stroke-dasharray:none;stroke-dashoffset:0"
       d="m 259.28571,865.93361 c 45.88842,-1.87811 88.51822,-11.49542 119.28572,-49.28571"
       id="path3771"
       sodipodi:nodetypes="cc" />
    <path
       style="fill:none;stroke:#000000;stroke-width:5;stroke-linecap:round;stroke-linejoin:round;stroke-miterlimit:4;stroke-opacity:1;stroke-dasharray:none;stroke-dashoffset:0"
       d="m 221.42857,666.6479 c 40.1043,7.89558 79.39041,8.01843 115.71429,-20"
       id="path3773"
       sodipodi:nodetypes="cc" />
    <path
       style="fill:none;stroke:#000000;stroke-width:5;stroke-linecap:round;stroke-linejoin:round;stroke-miterlimit:4;stroke-opacity:1;stroke-dasharray:none;stroke-dashoffset:0"
       d="M 252.85714,504.50504 C 283.85706,529.58467 322.60629,528.83328 365,515.93361"
       id="path3775"
       sodipodi:nodetypes="cc" />
    <path
       style="fill:none;stroke:#000000;stroke-width:5;stroke-linecap:round;stroke-linejoin:round;stroke-miterlimit:4;stroke-opacity:1;stroke-dasharray:none;stroke-dashoffset:0"
       d="m 325,323.79075 c 30.24509,17.63096 65.11113,27.40631 114.28571,12.85715"
       id="path3777"
       sodipodi:nodetypes="cc" />
    <path
       style="fill:none;stroke:#000000;stroke-width:5;stroke-linecap:round;stroke-linejoin:round;stroke-miterlimit:4;stroke-opacity:1;stroke-dasharray:none;stroke-dashoffset:0"
       d="m 390.35715,186.29076 c 30.43098,19.92054 66.14961,27.26358 111.78571,11.07143"
       id="path3779"
       sodipodi:nodetypes="cc" />
    <path
       style="fill:none;stroke:#000000;stroke-width:5;stroke-linecap:round;stroke-linejoin:round;stroke-miterlimit:4;stroke-opacity:1;stroke-dasharray:none;stroke-dashoffset:0"
       d="M 504.28571,39.505039 C 525.11642,55.030523 548.45693,61.35343 575,55.93361"
       id="path3781"
       sodipodi:nodetypes="cc" />
    <path
       style="fill:none;stroke:#000000;stroke-width:5;stroke-linecap:round;stroke-linejoin:round;stroke-miterlimit:4;stroke-opacity:1;stroke-dasharray:none;stroke-dashoffset:0"
       d="m 503.57143,-44.780676 c 32.10238,15.749971 58.45582,2.755279 85,-9.285714"
       id="path3783"
       sodipodi:nodetypes="cc" />
    <path
       style="fill:none;stroke:#000000;stroke-width:5;stroke-linecap:round;stroke-linejoin:round;stroke-miterlimit:4;stroke-opacity:1;stroke-dasharray:none;stroke-dashoffset:0"
       d="m 149.28571,903.07647 c 36.73595,5.53811 63.96134,-3.89747 86.42858,-19.28572"
       id="path3785"
       sodipodi:nodetypes="cc" />
    <path
       style="fill:none;stroke:#000000;stroke-width:5;stroke-linecap:round;stroke-linejoin:round;stroke-miterlimit:4;stroke-opacity:1;stroke-dasharray:none;stroke-dashoffset:0"
       d="m 93.571429,771.6479 c 34.422831,10.08988 63.419961,5.10838 89.285711,-8.57143"
       id="path3787"
       sodipodi:nodetypes="cc" />
    <path
       style="fill:none;stroke:#000000;stroke-width:5;stroke-linecap:round;stroke-linejoin:round;stroke-miterlimit:4;stroke-opacity:1;stroke-dasharray:none;stroke-dashoffset:0"
       d="m 69.285714,623.79075 c 40.214446,19.35824 76.649386,12.25997 112.142856,-1.42857"
       id="path3789"
       sodipodi:nodetypes="cc" />
    <path
       style="fill:none;stroke:#000000;stroke-width:5;stroke-linecap:round;stroke-linejoin:round;stroke-miterlimit:4;stroke-opacity:1;stroke-dasharray:none;stroke-dashoffset:0"
       d="m 130.71429,465.21932 c 23.69402,17.70391 46.76842,36.18234 96.42857,21.42858"
       id="path3791"
       sodipodi:nodetypes="cc" />
    <path
       style="fill:none;stroke:#000000;stroke-width:5;stroke-linecap:round;stroke-linejoin:round;stroke-miterlimit:4;stroke-opacity:1;stroke-dasharray:none;stroke-dashoffset:0"
       d="m 226.42857,356.6479 c 17.93377,15.24905 37.02281,28.45415 67.14286,22.14285"
       id="path3793"
       sodipodi:nodetypes="cc" />
    <path
       sodipodi:type="arc"
       style="fill:#000000;fill-opacity:1;stroke:none"
       id="path3795"
       sodipodi:cx="219.28572"
       sodipodi:cy="-234.78067"
       sodipodi:rx="7.8571429"
       sodipodi:ry="7.8571429"
       d="m 227.14286,-234.78067 c 0,4.33938 -3.51776,7.85714 -7.85714,7.85714 -4.33938,0 -7.85714,-3.51776 -7.85714,-7.85714 0,-4.33938 3.51776,-7.85714 7.85714,-7.85714 4.33938,0 7.85714,3.51776 7.85714,7.85714 z" />
    <path
       d="m 227.14286,-234.78067 c 0,4.33938 -3.51776,7.85714 -7.85714,7.85714 -4.33938,0 -7.85714,-3.51776 -7.85714,-7.85714 0,-4.33938 3.51776,-7.85714 7.85714,-7.85714 4.33938,0 7.85714,3.51776 7.85714,7.85714 z"
       sodipodi:ry="7.8571429"
       sodipodi:rx="7.8571429"
       sodipodi:cy="-234.78067"
       sodipodi:cx="219.28572"
       id="path3797"
       style="fill:#000000;fill-opacity:1;stroke:none"
       sodipodi:type="arc"
       transform="translate(37.88072,16.667517)" />
    <path
       transform="translate(60.609152,43.941636)"
       sodipodi:type="arc"
       style="fill:#000000;fill-opacity:1;stroke:none"
       id="path3799"
       sodipodi:cx="219.28572"
       sodipodi:cy="-234.78067"
       sodipodi:rx="7.8571429"
       sodipodi:ry="7.8571429"
       d="m 227.14286,-234.78067 c 0,4.33938 -3.51776,7.85714 -7.85714,7.85714 -4.33938,0 -7.85714,-3.51776 -7.85714,-7.85714 0,-4.33938 3.51776,-7.85714 7.85714,-7.85714 4.33938,0 7.85714,3.51776 7.85714,7.85714 z" />
    <path
       d="m 227.14286,-234.78067 c 0,4.33938 -3.51776,7.85714 -7.85714,7.85714 -4.33938,0 -7.85714,-3.51776 -7.85714,-7.85714 0,-4.33938 3.51776,-7.85714 7.85714,-7.85714 4.33938,0 7.85714,3.51776 7.85714,7.85714 z"
       sodipodi:ry="7.8571429"
       sodipodi:rx="7.8571429"
       sodipodi:cy="-234.78067"
       sodipodi:cx="219.28572"
       id="path3801"
       style="fill:#000000;fill-opacity:1;stroke:none"
       sodipodi:type="arc"
       transform="translate(77.276669,78.286823)" />
    <path
       transform="translate(83.337584,119.198)"
       sodipodi:type="arc"
       style="fill:#000000;fill-opacity:1;stroke:none"
       id="path3803"
       sodipodi:cx="219.28572"
       sodipodi:cy="-234.78067"
       sodipodi:rx="7.8571429"
       sodipodi:ry="7.8571429"
       d="m 227.14286,-234.78067 c 0,4.33938 -3.51776,7.85714 -7.85714,7.85714 -4.33938,0 -7.85714,-3.51776 -7.85714,-7.85714 0,-4.33938 3.51776,-7.85714 7.85714,-7.85714 4.33938,0 7.85714,3.51776 7.85714,7.85714 z" />
  </g>
</svg>
