<?xml version="1.0" encoding="UTF-8" standalone="no"?>
<!-- Created with Inkscape (http://www.inkscape.org/) -->

<svg
   xmlns:dc="http://purl.org/dc/elements/1.1/"
   xmlns:cc="http://creativecommons.org/ns#"
   xmlns:rdf="http://www.w3.org/1999/02/22-rdf-syntax-ns#"
   xmlns:svg="http://www.w3.org/2000/svg"
   xmlns="http://www.w3.org/2000/svg"
   xmlns:sodipodi="http://sodipodi.sourceforge.net/DTD/sodipodi-0.dtd"
   xmlns:inkscape="http://www.inkscape.org/namespaces/inkscape"
   width="968"
   height="484"
   id="svg2"
   version="1.1"
   inkscape:version="0.47 r22583"
   sodipodi:docname="krunyr.svg">
  <defs
     id="defs4">
    <inkscape:perspective
       sodipodi:type="inkscape:persp3d"
       inkscape:vp_x="0 : 526.18109 : 1"
       inkscape:vp_y="0 : 1000 : 0"
       inkscape:vp_z="744.09448 : 526.18109 : 1"
       inkscape:persp3d-origin="372.04724 : 350.78739 : 1"
       id="perspective10" />
  </defs>
  <sodipodi:namedview
     id="base"
     pagecolor="#ffffff"
     bordercolor="#666666"
     borderopacity="1.0"
     inkscape:pageopacity="0.0"
     inkscape:pageshadow="2"
     inkscape:zoom="0.5"
     inkscape:cx="721.70519"
     inkscape:cy="107.55092"
     inkscape:document-units="px"
     inkscape:current-layer="layer1"
     showgrid="false"
     inkscape:window-width="1280"
     inkscape:window-height="744"
     inkscape:window-x="78"
     inkscape:window-y="0"
     inkscape:window-maximized="0" />
  <metadata
     id="metadata7">
    <rdf:RDF>
      <cc:Work
         rdf:about="">
        <dc:format>image/svg+xml</dc:format>
        <dc:type
           rdf:resource="http://purl.org/dc/dcmitype/StillImage" />
      </cc:Work>
    </rdf:RDF>
  </metadata>
  <g
     inkscape:label="Layer 1"
     inkscape:groupmode="layer"
     id="layer1"
     transform="translate(737.23248,88.69104)">
    <rect
       style="fill:#99ff99;fill-opacity:1;fill-rule:nonzero;stroke:none"
       id="rect2816"
       width="484"
       height="968"
       x="-395.30896"
       y="-737.23248"
       transform="matrix(0,-1,1,0,0,0)" />
    <path
       style="fill:#000000;fill-opacity:1;stroke:none"
       d="m -731.5,190.86218 c 21,66 7.5,96 0,110 -7.5,14 -1.5,18.5 -1.5,18.5 l 339,-8 -15.5,-183.5 -322,63 z"
       id="path3594"
       sodipodi:nodetypes="cscccc" />
    <path
       style="fill:#000000;fill-opacity:1;fill-rule:nonzero;stroke:none"
       d="m 230,185.36218 c -33.6685,88.35278 -16.44606,96.57829 -5,130 12.46452,36.39555 -20,27 -20,27 l -232,-57 166,-136 91,36 z"
       id="path3596"
       sodipodi:nodetypes="cscccc" />
    <path
       style="fill:#0bf300;fill-opacity:1;stroke:none"
       d="M -275.01429,-77.452317 C 67.256755,-76.642006 186.01714,54.84169 209.30361,104.8391 257.38687,208.07669 169.70562,261.8168 89.095455,263.23102 8.4852809,264.64523 -480.83261,253.33152 -603.86919,240.6036 -726.90577,227.87568 -755.89715,197.47009 -695.79308,80.090358 -662.36287,14.803136 -552.17535,-78.108484 -275.01429,-77.452317 z"
       id="path3753"
       sodipodi:nodetypes="csssss" />
    <path
       style="fill:#e4ff0e;fill-opacity:1;fill-rule:nonzero;stroke:#000000;stroke-width:20;stroke-miterlimit:4;stroke-opacity:1;stroke-dasharray:none"
       d="m -728.31998,320.50667 c -0.38137,45.99293 236.88077,66.46804 495.68185,63.63961 258.801081,-2.82843 460.32651,1.45836 460.32651,-42.42641 0,-36.76956 -114.55129,-79.19596 -456.08387,-82.02439 -343.07132,-2.84118 -499.52605,12.75906 -499.92449,60.81119 z"
       id="path3590"
       sodipodi:nodetypes="cssss" />
    <path
       style="fill:none;stroke:#908900;stroke-width:20;stroke-miterlimit:4;stroke-opacity:1;stroke-dasharray:none"
       d="m -719,327.36218 c 120.92381,-33.9619 285.54398,-39.04487 418,-39 324.448148,0.1099 506.5,45.5 523.5,52.5"
       id="path3605"
       sodipodi:nodetypes="csc" />
    <path
       style="fill:none;stroke:#908900;stroke-width:20;stroke-linecap:round;stroke-linejoin:round;stroke-miterlimit:4;stroke-opacity:1;stroke-dasharray:none;stroke-dashoffset:0"
       d="m -602,309.86218 c -12,35 2,52.5 2,52.5"
       id="path3613"
       sodipodi:nodetypes="cc" />
    <path
       style="fill:none;stroke:#908900;stroke-width:20;stroke-linecap:round;stroke-linejoin:round;stroke-miterlimit:4;stroke-opacity:1;stroke-dasharray:none;stroke-dashoffset:0"
       d="m -525,297.36218 c -16,34 2.5,74.5 2.5,74.5"
       id="path3619"
       sodipodi:nodetypes="cc" />
    <path
       style="fill:none;stroke:#908900;stroke-width:20;stroke-linecap:round;stroke-linejoin:round;stroke-miterlimit:4;stroke-opacity:1;stroke-dasharray:none;stroke-dashoffset:0"
       d="m -436,296.86218 c -25,32 -4,79 -4,79"
       id="path3621" />
    <path
       style="fill:none;stroke:#908900;stroke-width:20;stroke-linecap:round;stroke-linejoin:round;stroke-miterlimit:4;stroke-opacity:1;stroke-dasharray:none;stroke-dashoffset:0"
       d="m -667,318.86218 c -4,26 -1,36 -1,36"
       id="path3623" />
    <path
       style="fill:none;stroke:#908900;stroke-width:20;stroke-linecap:round;stroke-linejoin:round;stroke-miterlimit:4;stroke-opacity:1;stroke-dasharray:none;stroke-dashoffset:0"
       d="m -349,292.86218 c -27,35 -13,88 -13,88"
       id="path3625" />
    <path
       style="fill:none;stroke:#908900;stroke-width:20;stroke-linecap:round;stroke-linejoin:round;stroke-miterlimit:4;stroke-opacity:1;stroke-dasharray:none;stroke-dashoffset:0"
       d="m -235,291.36218 c -27.5,24.5 -13,90 -13,90"
       id="path3627" />
    <path
       style="fill:none;stroke:#908900;stroke-width:20;stroke-linecap:round;stroke-linejoin:round;stroke-miterlimit:4;stroke-opacity:1;stroke-dasharray:none;stroke-dashoffset:0"
       d="m -85,298.36218 c -27.5,45.5 -13.5,85.5 -13.5,85.5"
       id="path3629" />
    <path
       style="fill:none;stroke:#908900;stroke-width:20;stroke-linecap:round;stroke-linejoin:round;stroke-miterlimit:4;stroke-opacity:1;stroke-dasharray:none;stroke-dashoffset:0"
       d="m 19,310.86218 c -22,32 -11,68 -11,68"
       id="path3631" />
    <path
       style="fill:none;stroke:#908900;stroke-width:20;stroke-linecap:round;stroke-linejoin:round;stroke-miterlimit:4;stroke-opacity:1;stroke-dasharray:none;stroke-dashoffset:0"
       d="m 114,317.86218 c -29,20 -23.5,58 -23.5,58"
       id="path3633"
       sodipodi:nodetypes="cc" />
    <path
       style="fill:none;stroke:#908900;stroke-width:20;stroke-linecap:round;stroke-linejoin:round;stroke-miterlimit:4;stroke-opacity:1;stroke-dasharray:none;stroke-dashoffset:0"
       d="m 186.5,331.36218 c -29,26.5 -22,38 -22,38"
       id="path3635"
       sodipodi:nodetypes="cc" />
    <path
       style="fill:none;stroke:#0e7a00;stroke-width:20;stroke-miterlimit:4;stroke-opacity:1;stroke-dasharray:none"
       d="m -632,233.36218 c -53.5621,-77.9097 -15.67906,-157.94725 30,-238.4999974"
       id="path3652"
       sodipodi:nodetypes="cc" />
    <path
       style="fill:none;stroke:#0e7a00;stroke-width:20;stroke-linecap:round;stroke-linejoin:round;stroke-miterlimit:4;stroke-opacity:1;stroke-dasharray:none;stroke-dashoffset:0"
       d="m -540,243.36218 c -92.27973,-90.1459 -12.56423,-189.126233 34,-281.999997"
       id="path3654"
       sodipodi:nodetypes="cc" />
    <path
       style="fill:none;stroke:#0e7a00;stroke-width:20;stroke-linecap:round;stroke-linejoin:round;stroke-miterlimit:4;stroke-opacity:1;stroke-dasharray:none;stroke-dashoffset:0"
       d="m -437,244.36218 c -76.51549,-98.38686 -35.26369,-198.974911 19,-299.999997"
       id="path3656"
       sodipodi:nodetypes="cc" />
    <path
       style="fill:none;stroke:#0e7a00;stroke-width:20;stroke-linecap:round;stroke-linejoin:round;stroke-miterlimit:4;stroke-opacity:1;stroke-dasharray:none;stroke-dashoffset:0"
       d="M -332,248.36218 C -420.81678,131.21684 -374.08951,35.185387 -316,-59.637817"
       id="path3658"
       sodipodi:nodetypes="cc" />
    <path
       style="fill:none;stroke:#0e7a00;stroke-width:20;stroke-linecap:round;stroke-linejoin:round;stroke-miterlimit:4;stroke-opacity:1;stroke-dasharray:none;stroke-dashoffset:0"
       d="m -226,251.36218 c -48.28085,-82.83285 -51.87684,-172.648656 20,-309.999997"
       id="path3660"
       sodipodi:nodetypes="cc" />
    <path
       style="fill:none;stroke:#0e7a00;stroke-width:20;stroke-linecap:round;stroke-linejoin:round;stroke-miterlimit:4;stroke-opacity:1;stroke-dasharray:none;stroke-dashoffset:0"
       d="M -111,249.36218 C -167.24546,139.96824 -121.40339,45.240922 -80,-45.637817"
       id="path3662"
       sodipodi:nodetypes="cc" />
    <path
       style="fill:none;stroke:#0e7a00;stroke-width:20;stroke-linecap:round;stroke-linejoin:round;stroke-miterlimit:4;stroke-opacity:1;stroke-dasharray:none;stroke-dashoffset:0"
       d="M 16,263.36218 C -6.2130732,170.63477 -2.1984427,81.10671 50,-3.6378174"
       id="path3664"
       sodipodi:nodetypes="cc" />
    <path
       style="fill:none;stroke:#0e7a00;stroke-width:20;stroke-linecap:round;stroke-linejoin:round;stroke-miterlimit:4;stroke-opacity:1;stroke-dasharray:none;stroke-dashoffset:0"
       d="M 92,258.36218 C 95.718583,174.35873 141.14741,129.87026 195,93.362183"
       id="path3666"
       sodipodi:nodetypes="cc" />
    <path
       style="fill:none;stroke:#0e7a00;stroke-width:20;stroke-linecap:round;stroke-linejoin:round;stroke-miterlimit:4;stroke-opacity:1;stroke-dasharray:none;stroke-dashoffset:0"
       d="m -699.5,97.362182 c 16.62494,-8.332886 31.6321,-3.723486 47,-2"
       id="path3668"
       sodipodi:nodetypes="cc" />
    <path
       style="fill:none;stroke:#0e7a00;stroke-width:20;stroke-linecap:round;stroke-linejoin:round;stroke-miterlimit:4;stroke-opacity:1;stroke-dasharray:none;stroke-dashoffset:0"
       d="m -658.5,187.36218 c -42.65608,-5.33069 -47.71763,-1.26274 -60,1"
       id="path3674"
       sodipodi:nodetypes="cc" />
    <path
       style="fill:none;stroke:#0e7a00;stroke-width:20;stroke-linecap:round;stroke-linejoin:round;stroke-miterlimit:4;stroke-opacity:1;stroke-dasharray:none;stroke-dashoffset:0"
       d="m -618.5,36.862182 c 26.46434,-13.81008 51.85667,-16.900027 77,-17.5"
       id="path3676"
       sodipodi:nodetypes="cc" />
    <path
       style="fill:none;stroke:#0e7a00;stroke-width:20;stroke-linecap:round;stroke-linejoin:round;stroke-miterlimit:4;stroke-opacity:1;stroke-dasharray:none;stroke-dashoffset:0"
       d="m -654.5,134.36218 c 27.11582,-6.97515 52.03295,-9.99265 72.5,-5"
       id="path3678"
       sodipodi:nodetypes="cc" />
    <path
       style="fill:none;stroke:#0e7a00;stroke-width:20;stroke-linecap:round;stroke-linejoin:round;stroke-miterlimit:4;stroke-opacity:1;stroke-dasharray:none;stroke-dashoffset:0"
       d="m -571,190.86218 c 34.16667,-11.08331 68.33333,-2.4743 102.5,3"
       id="path3680"
       sodipodi:nodetypes="cc" />
    <path
       style="fill:none;stroke:#0e7a00;stroke-width:20;stroke-linecap:round;stroke-linejoin:round;stroke-miterlimit:4;stroke-opacity:1;stroke-dasharray:none;stroke-dashoffset:0"
       d="m -554.5,72.362182 c 26.64232,-4.981274 53.26389,-9.851862 76,6"
       id="path3682"
       sodipodi:nodetypes="cc" />
    <path
       style="fill:none;stroke:#0e7a00;stroke-width:20;stroke-linecap:round;stroke-linejoin:round;stroke-miterlimit:4;stroke-opacity:1;stroke-dasharray:none;stroke-dashoffset:0"
       d="m -439.5,2.3621821 c 31.54859,-11.7487894 57.93538,-8.8724768 81.5,2"
       id="path3684"
       sodipodi:nodetypes="cc" />
    <path
       style="fill:none;stroke:#0e7a00;stroke-width:20;stroke-linecap:round;stroke-linejoin:round;stroke-miterlimit:4;stroke-opacity:1;stroke-dasharray:none;stroke-dashoffset:0"
       d="m -473.5,125.86218 c 27.38211,-2.36505 47.14956,-15.39062 86.5,-1"
       id="path3686"
       sodipodi:nodetypes="cc" />
    <path
       style="fill:none;stroke:#0e7a00;stroke-width:20;stroke-linecap:round;stroke-linejoin:round;stroke-miterlimit:4;stroke-opacity:1;stroke-dasharray:none;stroke-dashoffset:0"
       d="m -361,45.862182 c 38.65833,-19.102759 73.78118,-11.100135 108.5,0"
       id="path3688"
       sodipodi:nodetypes="cc" />
    <path
       style="fill:none;stroke:#0e7a00;stroke-width:20;stroke-linecap:round;stroke-linejoin:round;stroke-miterlimit:4;stroke-opacity:1;stroke-dasharray:none;stroke-dashoffset:0"
       d="m -359.5,195.86218 c 36.97293,-13.99641 70.8573,-13.32218 102.5,-2"
       id="path3690"
       sodipodi:nodetypes="cc" />
    <path
       style="fill:none;stroke:#0e7a00;stroke-width:20;stroke-linecap:round;stroke-linejoin:round;stroke-miterlimit:4;stroke-opacity:1;stroke-dasharray:none;stroke-dashoffset:0"
       d="m -216.5,-30.637818 c 51.05587,-7.047951 85.84779,3.329749 118.5,16"
       id="path3692"
       sodipodi:nodetypes="cc" />
    <path
       style="fill:none;stroke:#0e7a00;stroke-width:20;stroke-linecap:round;stroke-linejoin:round;stroke-miterlimit:4;stroke-opacity:1;stroke-dasharray:none;stroke-dashoffset:0"
       d="m -256.5,115.36218 c 37.31721,-10.32969 76.18738,-10.30633 117.5,6"
       id="path3694"
       sodipodi:nodetypes="cc" />
    <path
       style="fill:none;stroke:#0e7a00;stroke-width:20;stroke-linecap:round;stroke-linejoin:round;stroke-miterlimit:4;stroke-opacity:1;stroke-dasharray:none;stroke-dashoffset:0"
       d="m -127,196.36218 c 46.781373,-14.2402 89.37495,-7.54142 129.5,11.5"
       id="path3696"
       sodipodi:nodetypes="cc" />
    <path
       style="fill:none;stroke:#0e7a00;stroke-width:20;stroke-linecap:round;stroke-linejoin:round;stroke-miterlimit:4;stroke-opacity:1;stroke-dasharray:none;stroke-dashoffset:0"
       d="m -112.5,54.862182 c 43.549402,-17.082515 83.915699,-0.211899 123.5,25"
       id="path3698"
       sodipodi:nodetypes="cc" />
    <path
       style="fill:none;stroke:#0e7a00;stroke-width:20;stroke-linecap:round;stroke-linejoin:round;stroke-miterlimit:4;stroke-opacity:1;stroke-dasharray:none;stroke-dashoffset:0"
       d="m 6,145.86218 c 37.183907,1.40933 75.864431,-1.83749 101.5,35.5"
       id="path3700"
       sodipodi:nodetypes="cc" />
    <path
       style="fill:none;stroke:#0e7a00;stroke-width:20;stroke-linecap:round;stroke-linejoin:round;stroke-miterlimit:4;stroke-opacity:1;stroke-dasharray:none;stroke-dashoffset:0"
       d="m 39.5,30.862182 c 50.285607,4.5241 90.84373,35.577713 126.5,79.999998"
       id="path3702"
       sodipodi:nodetypes="cc" />
    <path
       style="fill:none;stroke:#0e7a00;stroke-width:20;stroke-linecap:round;stroke-linejoin:round;stroke-miterlimit:4;stroke-opacity:1;stroke-dasharray:none;stroke-dashoffset:0"
       d="m 130,159.36218 c 30.93723,5.48653 58.98717,15.4644 78,39.5"
       id="path3704"
       sodipodi:nodetypes="cc" />
  </g>
  <g
     inkscape:groupmode="layer"
     id="layer2"
     inkscape:label="Layer"
     transform="translate(737.23248,88.69104)">
    <path
       sodipodi:nodetypes="cssss"
       id="path3598"
       d="m -728.31998,320.50667 c -0.38137,45.99293 236.88077,66.46804 495.68185,63.63961 258.801081,-2.82843 460.32651,1.45836 460.32651,-42.42641 0,-36.76956 -114.55129,-79.19596 -456.08387,-82.02439 -343.07132,-2.84118 -499.52605,12.75906 -499.92449,60.81119 z"
       style="fill:none;stroke:#000000;stroke-width:20;stroke-miterlimit:4;stroke-opacity:1;stroke-dasharray:none" />
    <path
       sodipodi:nodetypes="csssss"
       id="path3600"
       d="M -275.01429,-77.452317 C 67.256755,-76.642006 186.01714,54.84169 209.30361,104.8391 257.38687,208.07669 169.70562,261.8168 89.095455,263.23102 8.4852809,264.64523 -480.83261,253.33152 -603.86919,240.6036 -726.90577,227.87568 -755.89715,197.47009 -695.79308,80.090358 -662.36287,14.803136 -552.17535,-78.108484 -275.01429,-77.452317 z"
       style="fill:none;stroke:#000000;stroke-width:20;stroke-linecap:round;stroke-linejoin:round;stroke-miterlimit:4;stroke-opacity:1;stroke-dasharray:none;stroke-dashoffset:0" />
  </g>
</svg>
