<?xml version="1.0" encoding="UTF-8" standalone="no"?>
<!-- Created with Inkscape (http://www.inkscape.org/) -->

<svg
   xmlns:dc="http://purl.org/dc/elements/1.1/"
   xmlns:cc="http://creativecommons.org/ns#"
   xmlns:rdf="http://www.w3.org/1999/02/22-rdf-syntax-ns#"
   xmlns:svg="http://www.w3.org/2000/svg"
   xmlns="http://www.w3.org/2000/svg"
   xmlns:sodipodi="http://sodipodi.sourceforge.net/DTD/sodipodi-0.dtd"
   xmlns:inkscape="http://www.inkscape.org/namespaces/inkscape"
   width="712.85712"
   height="1425.7142"
   id="svg3725"
   version="1.1"
   inkscape:version="0.47 r22583"
   sodipodi:docname="sasanka.svg">
  <defs
     id="defs3727">
    <inkscape:perspective
       sodipodi:type="inkscape:persp3d"
       inkscape:vp_x="0 : 526.18109 : 1"
       inkscape:vp_y="0 : 1000 : 0"
       inkscape:vp_z="744.09448 : 526.18109 : 1"
       inkscape:persp3d-origin="372.04724 : 350.78739 : 1"
       id="perspective3733" />
  </defs>
  <sodipodi:namedview
     id="base"
     pagecolor="#ffffff"
     bordercolor="#666666"
     borderopacity="1.0"
     inkscape:pageopacity="0.0"
     inkscape:pageshadow="2"
     inkscape:zoom="0.24748737"
     inkscape:cx="848.16076"
     inkscape:cy="674.10209"
     inkscape:document-units="px"
     inkscape:current-layer="layer1"
     showgrid="false"
     inkscape:window-width="1236"
     inkscape:window-height="744"
     inkscape:window-x="122"
     inkscape:window-y="0"
     inkscape:window-maximized="0" />
  <metadata
     id="metadata3730">
    <rdf:RDF>
      <cc:Work
         rdf:about="">
        <dc:format>image/svg+xml</dc:format>
        <dc:type
           rdf:resource="http://purl.org/dc/dcmitype/StillImage" />
      </cc:Work>
    </rdf:RDF>
  </metadata>
  <g
     inkscape:label="Layer 1"
     inkscape:groupmode="layer"
     id="layer1"
     transform="translate(1065.7142,199.06635)">
    <rect
       style="fill:#a0ffa0;fill-opacity:1;fill-rule:nonzero;stroke:none"
       id="rect3735"
       width="712.85712"
       height="1425.7142"
       x="-1065.7142"
       y="-199.06635" />
    <path
       style="fill:#00ff00;fill-opacity:1;fill-rule:nonzero;stroke:#000000;stroke-width:10;stroke-linecap:round;stroke-linejoin:round;stroke-miterlimit:4;stroke-opacity:1;stroke-dasharray:none;stroke-dashoffset:0"
       d="m -822.85714,218.07647 c 14.28571,357.14286 -31.42857,448.57143 -88.57143,491.42857 -57.14286,42.85714 -145.71433,102.85714 -148.57143,222.85714 -2.8571,120.00002 -11.4286,267.14282 0,271.42862 11.4286,4.2857 88.57143,24.2857 101.42857,7.1428 12.85714,-17.1428 25.71429,-50 58.57143,-54.2857 32.85714,-4.2857 47.14286,0 61.42857,18.5714 14.28572,18.5715 54.28572,42.8572 62.85714,40 8.57143,-2.8571 35.71429,-12.8571 58.57143,-11.4285 22.85715,1.4285 74.28572,8.5714 95.71429,0 21.42857,-8.5715 48.57143,-12.8572 81.42857,-5.7143 32.85714,7.1428 55.71429,10 55.71429,10 0,0 54.28571,20 84.28571,1.4285 30,-18.5714 44.28571,-160 41.42857,-248.57139 -2.85714,-88.57143 -18.57143,-225.71428 -78.57143,-300 -60,-74.28571 -141.42857,-444.28571 -141.42857,-444.28571 l -244.28571,1.42857 z"
       id="path4601"
       sodipodi:nodetypes="csssssssssscssscc" />
    <path
       style="fill:none;stroke:#000000;stroke-width:5;stroke-linecap:round;stroke-linejoin:round;stroke-miterlimit:4;stroke-opacity:1;stroke-dasharray:none;stroke-dashoffset:0"
       d="m -454.56865,1216.0069 c 20.20306,-224.25387 9.09138,-374.7666 -24.24366,-419.21331 -33.33503,-44.44671 -51.51778,-69.70053 -51.51778,-69.70053"
       id="path4698" />
    <path
       style="fill:none;stroke:#000000;stroke-width:5;stroke-linecap:round;stroke-linejoin:round;stroke-miterlimit:4;stroke-opacity:1;stroke-dasharray:none;stroke-dashoffset:0"
       d="m -442.44681,1217.017 c 19.19289,-139.401 11.11167,-273.75129 11.11167,-273.75129"
       id="path4702" />
    <path
       style="fill:none;stroke:#000000;stroke-width:5;stroke-linecap:round;stroke-linejoin:round;stroke-miterlimit:4;stroke-opacity:1;stroke-dasharray:none;stroke-dashoffset:0"
       d="m -431.33514,1214.9967 c 25.25382,-151.5228 13.13199,-322.23862 13.13199,-322.23862"
       id="path4706" />
    <path
       style="fill:none;stroke:#000000;stroke-width:5;stroke-linecap:round;stroke-linejoin:round;stroke-miterlimit:4;stroke-opacity:1;stroke-dasharray:none;stroke-dashoffset:0"
       d="m -418.20315,1218.0272 c 16.16244,-62.6295 21.2132,-250.51783 21.2132,-250.51783"
       id="path4708" />
    <path
       style="fill:none;stroke:#000000;stroke-width:5;stroke-linecap:round;stroke-linejoin:round;stroke-miterlimit:4;stroke-opacity:1;stroke-dasharray:none;stroke-dashoffset:0"
       d="m -584.87832,279.59549 c 36.36549,152.53303 62.62945,237.38584 62.62945,237.38584"
       id="path4710" />
    <path
       style="fill:none;stroke:#000000;stroke-width:5;stroke-linecap:round;stroke-linejoin:round;stroke-miterlimit:4;stroke-opacity:1;stroke-dasharray:none;stroke-dashoffset:0"
       d="m -594.97985,304.8493 c 20.20305,105.05586 45.45687,160.61425 45.45687,160.61425"
       id="path4712" />
    <path
       style="fill:none;stroke:#000000;stroke-width:5;stroke-linecap:round;stroke-linejoin:round;stroke-miterlimit:4;stroke-opacity:1;stroke-dasharray:none;stroke-dashoffset:0"
       d="m -621.24382,286.66655 c 3.03046,72.73099 44.44672,155.5635 44.44672,155.5635"
       id="path4714" />
    <path
       style="fill:none;stroke:#000000;stroke-width:5;stroke-linecap:round;stroke-linejoin:round;stroke-miterlimit:4;stroke-opacity:1;stroke-dasharray:none;stroke-dashoffset:0"
       d="m -724.27938,322.02189 3.03046,182.83761"
       id="path4716" />
    <path
       style="fill:none;stroke:#000000;stroke-width:5;stroke-linecap:round;stroke-linejoin:round;stroke-miterlimit:4;stroke-opacity:1;stroke-dasharray:none;stroke-dashoffset:0"
       d="m -703.06617,290.70716 -4.04061,211.12189"
       id="path4718" />
    <path
       style="fill:none;stroke:#000000;stroke-width:5;stroke-linecap:round;stroke-linejoin:round;stroke-miterlimit:4;stroke-opacity:1;stroke-dasharray:none;stroke-dashoffset:0"
       d="m -685.89358,503.84935 -9.09137,-193.94929"
       id="path4720" />
    <path
       style="fill:none;stroke:#000000;stroke-width:5;stroke-linecap:round;stroke-linejoin:round;stroke-miterlimit:4;stroke-opacity:1;stroke-dasharray:none;stroke-dashoffset:0"
       d="m -739.43166,306.8696 c 18.18274,96.97465 -7.07107,299.00516 -7.07107,299.00516"
       id="path4722" />
    <path
       style="fill:none;stroke:#000000;stroke-width:5;stroke-linecap:round;stroke-linejoin:round;stroke-miterlimit:4;stroke-opacity:1;stroke-dasharray:none;stroke-dashoffset:0"
       d="m -748.52304,334.14372 1.01016,114.14724"
       id="path4724" />
    <path
       style="fill:none;stroke:#000000;stroke-width:5;stroke-linecap:round;stroke-linejoin:round;stroke-miterlimit:4;stroke-opacity:1;stroke-dasharray:none;stroke-dashoffset:0"
       d="M -755.59411,293.73762 -772.7667,433.13867"
       id="path4726"
       sodipodi:nodetypes="cc" />
    <path
       style="fill:none;stroke:#000000;stroke-width:5;stroke-linecap:round;stroke-linejoin:round;stroke-miterlimit:4;stroke-opacity:1;stroke-dasharray:none;stroke-dashoffset:0"
       d="m -1024.2947,1207.9257 c 0,0 0,-286.88335 22.2234,-325.26914 22.22333,-38.3858 38.38577,-64.64977 38.38577,-64.64977"
       id="path4730" />
    <path
       style="fill:none;stroke:#000000;stroke-width:5;stroke-linecap:round;stroke-linejoin:round;stroke-miterlimit:4;stroke-opacity:1;stroke-dasharray:none;stroke-dashoffset:0"
       d="m -1038.4368,1206.9155 c 0,0 -1.0102,-178.797 5.0507,-214.15232 6.061,-35.35534 9.0914,-87.88327 9.0914,-87.88327"
       id="path4734" />
    <path
       style="fill:none;stroke:#000000;stroke-width:5;stroke-linecap:round;stroke-linejoin:round;stroke-miterlimit:4;stroke-opacity:1;stroke-dasharray:none;stroke-dashoffset:0"
       d="m -1052.579,1201.8648 2.0204,-170.7158"
       id="path4736" />
    <path
       style="fill:none;stroke:#000000;stroke-width:5;stroke-linecap:round;stroke-linejoin:round;stroke-miterlimit:4;stroke-opacity:1;stroke-dasharray:none;stroke-dashoffset:0"
       d="m -1012.1729,1211.9663 c 5.0508,-168.6955 8.0813,-294.96456 19.19295,-315.16761 11.11168,-20.20305 19.1929,-34.34519 19.1929,-34.34519"
       id="path4740" />
    <path
       style="fill:none;stroke:#000000;stroke-width:5;stroke-linecap:round;stroke-linejoin:round;stroke-miterlimit:4;stroke-opacity:1;stroke-dasharray:none;stroke-dashoffset:0"
       d="m -996.01041,1216.0069 1.01015,-201.0204"
       id="path4742" />
    <path
       style="fill:none;stroke:#000000;stroke-width:5;stroke-linecap:round;stroke-linejoin:round;stroke-miterlimit:4;stroke-opacity:1;stroke-dasharray:none;stroke-dashoffset:0"
       d="m -979.84797,1213.9866 -2.0203,-112.1269"
       id="path4746" />
    <path
       style="fill:none;stroke:#000000;stroke-width:5;stroke-linecap:round;stroke-linejoin:round;stroke-miterlimit:4;stroke-opacity:1;stroke-dasharray:none;stroke-dashoffset:0"
       d="m -859.63982,1153.3774 c -1.01015,-65.6599 10.10153,-118.1878 10.10153,-118.1878"
       id="path4748" />
    <path
       style="fill:none;stroke:#000000;stroke-width:5;stroke-linecap:round;stroke-linejoin:round;stroke-miterlimit:4;stroke-opacity:1;stroke-dasharray:none;stroke-dashoffset:0"
       d="m -846.50783,1167.5196 c -5.05077,-81.8224 23.23351,-196.97977 23.23351,-196.97977"
       id="path4754" />
    <path
       style="fill:none;stroke:#000000;stroke-width:5;stroke-linecap:round;stroke-linejoin:round;stroke-miterlimit:4;stroke-opacity:1;stroke-dasharray:none;stroke-dashoffset:0"
       d="m -835.39616,1176.6109 c 1.01016,-79.802 7.07107,-116.1675 7.07107,-116.1675"
       id="path4756" />
    <path
       style="fill:none;stroke:#000000;stroke-width:5;stroke-linecap:round;stroke-linejoin:round;stroke-miterlimit:4;stroke-opacity:1;stroke-dasharray:none;stroke-dashoffset:0"
       d="m -771.75654,1216.0069 c 17.17259,-98.995 4.04061,-150.5127 4.04061,-150.5127"
       id="path4762" />
    <path
       style="fill:none;stroke:#000000;stroke-width:5;stroke-linecap:round;stroke-linejoin:round;stroke-miterlimit:4;stroke-opacity:1;stroke-dasharray:none;stroke-dashoffset:0"
       d="m -756.60426,1209.946 c 13.13199,-93.9442 -2.0203,-164.6549 -2.0203,-164.6549"
       id="path4764" />
    <path
       style="fill:none;stroke:#000000;stroke-width:5;stroke-linecap:round;stroke-linejoin:round;stroke-miterlimit:4;stroke-opacity:1;stroke-dasharray:none;stroke-dashoffset:0"
       d="m -740.44182,1200.8546 c 16.16244,-93.9442 -8.08122,-180.8173 -8.08122,-180.8173"
       id="path4766" />
    <path
       style="fill:none;stroke:#000000;stroke-width:5;stroke-linecap:round;stroke-linejoin:round;stroke-miterlimit:4;stroke-opacity:1;stroke-dasharray:none;stroke-dashoffset:0"
       d="m -728.31999,1199.8445 c 12.12184,-64.6498 5.05077,-90.9138 5.05077,-90.9138"
       id="path4768" />
    <path
       style="fill:none;stroke:#000000;stroke-width:5;stroke-linecap:round;stroke-linejoin:round;stroke-miterlimit:4;stroke-opacity:1;stroke-dasharray:none;stroke-dashoffset:0"
       d="m -631.34534,1203.8851 c 22.22336,-141.4214 -15.15229,-269.71077 -41.41626,-354.56358 -26.26396,-84.85281 -13.13198,-219.2031 -13.13198,-219.2031"
       id="path4770" />
    <path
       style="fill:none;stroke:#000000;stroke-width:5;stroke-linecap:round;stroke-linejoin:round;stroke-miterlimit:4;stroke-opacity:1;stroke-dasharray:none;stroke-dashoffset:0"
       d="m -619.72859,1201.3597 c 15.15229,-146.9772 -6.06091,-213.1422 -14.14213,-243.44678 -8.08122,-30.30458 -10.6066,-55.55839 -10.6066,-55.55839"
       id="path4772" />
    <g
       id="g4605"
       style="fill:#ffffb2;fill-opacity:1">
      <path
         transform="matrix(1.0721868,0,0,1.0064971,96.739466,-22.325673)"
         d="m -531.42859,138.07646 c 0,104.9341 -96.25878,190 -215,190 -118.74122,0 -215,-85.0659 -215,-190 0,-104.934101 96.25878,-189.999998 215,-189.999998 118.74122,0 215,85.065897 215,189.999998 z"
         sodipodi:ry="190"
         sodipodi:rx="215"
         sodipodi:cy="138.07646"
         sodipodi:cx="-746.42859"
         id="path4375"
         style="fill:#ffffb2;fill-opacity:1;fill-rule:nonzero;stroke:none"
         sodipodi:type="arc" />
      <path
         sodipodi:nodetypes="cssssss"
         id="path4249"
         d="m -520.00001,136.64789 c 22.04082,-3.67347 34.83566,-9.93483 48.26531,-20.86734 7.90972,-6.43897 29.2392,-13.36213 59.99999,-15.45918 29.60114,-2.017997 49.24977,4.37327 49.18368,-10.867347 -0.0493,-11.372963 -11.32654,-9.132653 -23.57143,-10.765306 -12.2449,-1.632653 -68.97959,6.122449 -82.85714,-1.22449 -13.87755,-7.346939 -17.95918,-21.22449 -28.16326,-23.673469"
         style="fill:#ffffb2;fill-opacity:1;fill-rule:nonzero;stroke:#000000;stroke-width:10;stroke-miterlimit:4;stroke-opacity:1;stroke-dasharray:none" />
      <path
         style="fill:#ffffb2;fill-opacity:1;fill-rule:nonzero;stroke:#000000;stroke-width:10;stroke-miterlimit:4;stroke-opacity:1;stroke-dasharray:none"
         d="m -532.14286,188.79075 c 22.04082,-3.67347 34.83566,-9.93483 48.26531,-20.86734 7.90972,-6.43897 20.25484,-12.77531 43.57142,7.39796 19.95828,17.26772 53.28423,17.83176 57.04082,3.06123 3.16498,-12.4444 -26.54872,-8.47099 -40.35714,-22.90817 -14.7991,-15.47296 -38.62245,-23.87755 -57.5,-25.86734 -15.61585,-1.64599 -17.95918,-21.22449 -28.16326,-23.67347"
         id="path4251"
         sodipodi:nodetypes="cssssss" />
      <path
         sodipodi:nodetypes="cssssss"
         id="path4253"
         d="m -563.30419,228.25982 c 22.21203,2.43261 23.33215,-6.82771 40.20837,-2.94584 9.30872,2.14119 30.431,1.59215 61.94369,13.23888 27.82995,10.28563 51.14564,21.15731 55.20929,6.46828 3.03242,-10.96135 -38.9997,-19.10718 -61.47157,-28.1053 -36.26549,-14.52131 -19.44329,-24.70909 -26.6652,-41.05097 -6.34711,-14.36239 -15.62362,-16.05542 -24.78321,-21.17623"
         style="fill:#ffffb2;fill-opacity:1;fill-rule:nonzero;stroke:#000000;stroke-width:10;stroke-miterlimit:4;stroke-opacity:1;stroke-dasharray:none" />
      <path
         style="fill:#ffffb2;fill-opacity:1;fill-rule:nonzero;stroke:#000000;stroke-width:10;stroke-miterlimit:4;stroke-opacity:1;stroke-dasharray:none"
         d="m -604.90703,251.84454 c 20.42772,9.0554 34.55719,10.86392 51.78611,9.12054 10.1474,-1.02681 31.7685,4.92338 58.61154,20.09162 25.83108,14.5964 61.1256,15.55978 54.26343,-3.36013 -3.87778,-10.69156 -23.7881,-2.65463 -46.71301,-15.43184 -10.79046,-6.01407 -35.23705,-18.01487 -42.78567,-31.78375 -7.54862,-13.76889 -3.32419,-27.60364 -10.499,-35.2615"
         id="path4255"
         sodipodi:nodetypes="cssssss" />
      <path
         sodipodi:nodetypes="cssssss"
         id="path4293"
         d="m -579.97176,216.52733 c 12.46687,18.54371 16.7028,32.14406 17.97937,49.41384 0.75187,10.17147 10.3681,30.42993 29.96946,54.22929 18.86241,22.90218 25.94336,57.49251 6.11896,54.02194 -11.20272,-1.96119 -6.74731,-22.96507 -23.31327,-43.32134 -7.79739,-9.58144 -23.86312,-31.57114 -38.73412,-36.61269 -14.87101,-5.04154 -27.76137,1.52235 -36.54934,-4.21284"
         style="fill:#ffffb2;fill-opacity:1;fill-rule:nonzero;stroke:#000000;stroke-width:10;stroke-miterlimit:4;stroke-opacity:1;stroke-dasharray:none" />
      <path
         style="fill:#ffffb2;fill-opacity:1;fill-rule:nonzero;stroke:#000000;stroke-width:10;stroke-miterlimit:4;stroke-opacity:1;stroke-dasharray:none"
         d="m -595.04245,248.31794 c 2.1535,22.24083 -7.12016,23.24458 -3.4505,40.1682 2.02409,9.33489 1.20989,30.4486 12.46002,62.10506 9.93535,27.9569 20.5134,51.40727 5.77451,55.28615 -10.99856,2.89455 -18.61596,-39.23655 -27.33119,-61.81963 -14.06479,-36.44497 -24.463,-19.75203 -40.71291,-27.17857 -14.28155,-6.52696 -15.85796,-15.82401 -20.86335,-25.04717"
         id="path4291"
         sodipodi:nodetypes="cssssss" />
      <path
         sodipodi:nodetypes="cssssss"
         id="path4289"
         d="m -632.30864,263.95551 c -8.06939,20.83692 -16.7967,32.09509 -30.22681,43.02704 -7.90999,6.43864 -16.61948,17.24123 -1.59706,44.16614 12.85874,23.0469 6.64884,55.79402 -8.57667,56.47537 -12.82773,0.57402 -2.90774,-27.71529 -14.24271,-44.16592 -12.14817,-17.63087 -15.5439,-42.66402 -13.66184,-61.55261 1.55689,-15.62499 -17.13884,-21.89226 -17.46635,-32.381"
         style="fill:#ffffb2;fill-opacity:1;fill-rule:nonzero;stroke:#000000;stroke-width:10;stroke-miterlimit:4;stroke-opacity:1;stroke-dasharray:none" />
      <path
         style="fill:#ffffb2;fill-opacity:1;fill-rule:nonzero;stroke:#000000;stroke-width:10;stroke-miterlimit:4;stroke-opacity:1;stroke-dasharray:none"
         d="m -682.45921,263.39218 c -7.81956,20.93195 -16.4116,32.2937 -29.70998,43.38551 -7.83242,6.53279 -18.70573,26.14523 -26.64509,55.93768 -7.64004,28.66932 -5.12318,49.17742 -20.07004,46.19878 -11.15375,-2.22272 -6.79873,-12.86363 -6.06023,-25.19479 0.7385,-12.33117 19.19732,-66.53669 14.63908,-81.56288 -4.55825,-15.02618 -17.39947,-21.6857 -17.85242,-32.16976"
         id="path4287"
         sodipodi:nodetypes="cssssss" />
      <path
         sodipodi:nodetypes="cssssss"
         id="path4297"
         d="m -806.40294,242.44419 c -8.62833,20.61174 -10.14242,34.77579 -8.04088,51.9647 1.23776,10.12383 -4.2612,31.86408 -18.86754,59.01696 -14.05569,26.12924 -14.28436,61.43617 4.48864,54.18175 10.60855,-4.09943 2.15902,-23.83819 14.45639,-47.02403 5.78821,-10.91328 17.27767,-35.60432 30.88648,-43.43784 13.60882,-7.83352 27.52848,-3.89791 35.03537,-11.23053"
         style="fill:#ffffb2;fill-opacity:1;fill-rule:nonzero;stroke:#000000;stroke-width:10;stroke-miterlimit:4;stroke-opacity:1;stroke-dasharray:none" />
      <path
         sodipodi:nodetypes="cssssss"
         id="path4299"
         d="m -794.97303,278.83795 c -15.5399,16.05626 -22.31538,9.64524 -32.82361,23.40943 -5.79625,7.59214 -22.40153,20.65798 -39.21476,49.74427 -14.84836,25.68707 -25.84852,48.94243 -38.35589,40.23344 -9.33335,-6.49886 17.81077,-39.60855 29.35799,-60.88325 18.6351,-34.33347 -0.81621,-31.43111 -5.69424,-48.61883 -4.28715,-15.10577 1.77048,-22.33248 5.54918,-32.12238"
         style="fill:#ffffb2;fill-opacity:1;fill-rule:nonzero;stroke:#000000;stroke-width:10;stroke-miterlimit:4;stroke-opacity:1;stroke-dasharray:none" />
      <path
         style="fill:#ffffb2;fill-opacity:1;fill-rule:nonzero;stroke:#000000;stroke-width:10;stroke-miterlimit:4;stroke-opacity:1;stroke-dasharray:none"
         d="m -887.38081,211.88413 c -15.67225,15.92709 -22.3432,28.51323 -26.78212,45.25155 -2.61441,9.85844 -15.80107,27.99649 -39.45453,47.7737 -22.76176,19.03161 -42.41463,25.41007 -33.40293,37.70117 6.72472,9.17196 14.53141,0.73096 25.39741,-5.14552 10.86601,-5.87648 52.20716,-45.49813 67.75276,-47.71129 15.5456,-2.21316 27.0047,6.61493 36.69947,2.59843"
         id="path4301"
         sodipodi:nodetypes="cssssss" />
      <path
         style="fill:#ffffb2;fill-opacity:1;fill-rule:nonzero;stroke:#000000;stroke-width:10;stroke-miterlimit:4;stroke-opacity:1;stroke-dasharray:none"
         d="m -889.82553,266.47271 c -21.7108,-5.28525 -34.01026,-12.47105 -46.59911,-24.36206 -7.41452,-7.0035 -19.25996,-14.231 -43.99765,4.17201 -21.17471,15.75241 -54.45181,13.86287 -57.11161,-1.14403 -2.2407,-12.64354 27.1002,-6.49462 41.93345,-19.87668 15.89746,-14.34213 40.27464,-20.97106 59.24742,-21.56648 15.69463,-0.49254 19.47217,-19.84553 29.82879,-21.53706"
         id="path4303"
         sodipodi:nodetypes="cssssss" />
      <path
         sodipodi:nodetypes="cssssss"
         id="path4307"
         d="m -922.3001,114.67587 c -19.74471,10.46127 -29.89972,20.45069 -39.17831,35.07201 -5.46485,8.61158 -15.16952,18.52977 -43.67269,6.77431 -24.398,-10.06235 -56.1889,-0.0486 -55.0769,15.15157 0.9369,12.80635 27.865,-0.36818 45.5333,8.95582 18.93586,9.99293 44.19459,10.42444 62.7313,6.33651 15.33391,-3.38161 23.75402,14.44845 34.20861,13.54156"
         style="fill:#ffffb2;fill-opacity:1;fill-rule:nonzero;stroke:#000000;stroke-width:10;stroke-miterlimit:4;stroke-opacity:1;stroke-dasharray:none" />
      <path
         style="fill:#ffffb2;fill-opacity:1;fill-rule:nonzero;stroke:#000000;stroke-width:10;stroke-miterlimit:4;stroke-opacity:1;stroke-dasharray:none"
         d="m -901.8351,63.397078 c -22.15149,2.933153 -21.03154,12.193494 -38.3466,12.447056 -9.55078,0.139865 -29.93308,5.70888 -63.3138,1.911001 -29.4796,-3.354038 -54.7149,-8.35348 -55.1594,6.880801 -0.3316,11.368234 42.4305,9.258207 66.39963,12.639294 38.6818,5.45644 24.77357,19.36106 35.68334,33.50992 9.58825,12.43501 19.0009,11.86759 29.11723,14.65698"
         id="path4311"
         sodipodi:nodetypes="cssssss" />
      <path
         sodipodi:nodetypes="cssssss"
         id="path4313"
         d="m -902.46791,89.310343 c -19.27963,-11.295496 -28.99845,-21.709757 -37.64374,-36.714227 -5.09184,-8.837274 -22.5475,-22.914813 -50.53565,-35.848727 -26.933,-12.446425 -47.5689,-13.486032 -42.0694,-27.700097 4.1037,-10.606835 13.8394,-4.490448 25.8609,-1.646877 12.02155,2.843563 62.2555,30.330216 77.84099,28.418121 15.5855,-1.912197 24.34978,-13.420147 34.75605,-12.067268"
         style="fill:#ffffb2;fill-opacity:1;fill-rule:nonzero;stroke:#000000;stroke-width:10;stroke-miterlimit:4;stroke-opacity:1;stroke-dasharray:none" />
      <path
         style="fill:#ffffb2;fill-opacity:1;fill-rule:nonzero;stroke:#000000;stroke-width:10;stroke-miterlimit:4;stroke-opacity:1;stroke-dasharray:none"
         d="M -880.65311,53.572061 C -894.56635,36.087435 -899.879,22.870438 -902.53583,5.7585773 c -1.56488,-10.0784577 -12.77418,-29.5008323 -34.22036,-51.6522373 -20.63767,-21.316359 -30.46878,-55.22772 -10.42996,-53.357556 11.32397,1.056804 8.5666,22.350258 26.71115,41.312992 8.54041,8.925518 26.31721,29.556536 41.54451,33.389725 15.22741,3.83316 27.55001,-3.742964 36.76949,1.269279"
         id="path4317"
         sodipodi:nodetypes="cssssss" />
      <path
         style="fill:#ffffb2;fill-opacity:1;fill-rule:nonzero;stroke:#000000;stroke-width:10;stroke-miterlimit:4;stroke-opacity:1;stroke-dasharray:none"
         d="m -768.80098,-36.382274 c -14.84119,-16.704229 -26.95205,-24.203541 -43.35531,-29.75404 -9.66111,-3.269095 -26.87481,-17.641467 -45.02266,-42.566956 -17.46368,-23.98581 -49.18823,-39.48373 -50.7803,-19.4209 -0.89969,11.33743 20.55125,12.2706 36.12347,33.39674 7.32964,9.943809 24.60847,30.993679 25.77502,46.652636 1.16652,15.658968 -8.40953,26.500767 -5.05166,36.44287"
         id="path4319"
         sodipodi:nodetypes="cssssss" />
      <path
         style="fill:#ffffb2;fill-opacity:1;fill-rule:nonzero;stroke:#000000;stroke-width:10;stroke-miterlimit:4;stroke-opacity:1;stroke-dasharray:none"
         d="m -804.38447,-16.89963 c -2.22301,-22.233987 7.04747,-23.266712 3.32492,-40.178793 -2.05326,-9.328518 -1.30506,-30.444666 -12.65411,-62.065797 -10.02269,-27.92571 -20.67401,-51.3429 -5.94731,-55.26783 10.98946,-2.92892 18.73852,39.17816 27.52431,61.7339 14.17865,36.400815 24.52463,19.675444 40.79767,27.051149 14.30189,6.482284 15.90735,15.774364 20.94156,24.981832"
         id="path4321"
         sodipodi:nodetypes="cssssss" />
      <path
         style="fill:#ffffb2;fill-opacity:1;fill-rule:nonzero;stroke:#000000;stroke-width:10;stroke-miterlimit:4;stroke-opacity:1;stroke-dasharray:none"
         d="m -655.18555,-53.624485 c -8.58993,-20.627776 -17.59713,-31.663313 -31.29744,-42.254658 -8.06914,-6.238027 -19.66183,-25.434047 -28.69983,-54.911807 -8.69727,-28.36648 -33.64256,-53.35376 -41.68358,-34.90399 -4.54396,10.42589 15.43283,18.29612 23.27341,43.34276 3.69047,11.78913 13.16942,37.3196 9.17118,52.504385 -3.99825,15.184796 -16.58386,22.315623 -16.64795,32.809269"
         id="path4323"
         sodipodi:nodetypes="cssssss" />
      <path
         style="fill:#ffffb2;fill-opacity:1;fill-rule:nonzero;stroke:#000000;stroke-width:10;stroke-miterlimit:4;stroke-opacity:1;stroke-dasharray:none"
         d="m -670.50388,-51.653343 c 9.18577,-20.369425 17.73172,-16.631088 22.95905,-33.140201 2.88337,-9.106222 14.08409,-27.022566 20.05629,-60.083556 5.2743,-29.19729 7.75099,-54.80356 22.46834,-50.84367 10.98248,2.95495 -3.34822,43.29954 -7.01027,67.22736 -5.90989,38.615114 11.4099,29.298372 21.81923,43.819353 9.14843,12.762055 5.89539,21.612927 5.65452,32.104003"
         id="path4325"
         sodipodi:nodetypes="cssssss" />
      <path
         sodipodi:nodetypes="cssssss"
         id="path4327"
         d="m -563.50319,-1.2545909 c 9.95484,-20.0048121 12.38989,-34.0398771 11.41439,-51.3292901 -0.57454,-10.183019 6.33124,-31.518133 22.67814,-57.660109 15.73066,-25.15644 32.43321,-37.31969 20.05169,-46.20675 -9.23937,-6.63179 -14.04062,3.81536 -22.54606,12.77418 -8.50545,8.95882 -35.50725,59.455047 -49.59819,66.383907 -14.09095,6.928859 -27.72416,2.093402 -35.69351,8.920576"
         style="fill:#ffffb2;fill-opacity:1;fill-rule:nonzero;stroke:#000000;stroke-width:10;stroke-miterlimit:4;stroke-opacity:1;stroke-dasharray:none" />
      <path
         sodipodi:nodetypes="cssssss"
         id="path4329"
         d="m -590.20986,-40.059283 c 21.67809,-5.417833 35.90837,-4.776335 52.58304,-0.103988 9.82096,2.751887 23.6687,3.641447 37.01004,-24.154821 11.41979,-23.792754 41.75811,-37.595728 51.09185,-25.547374 7.86361,10.151028 -20.97092,18.352703 -27.87908,37.097891 -7.40381,20.090038 -25.90162,37.295282 -42.42095,46.6458233 -13.6651,7.734936 -8.00903,26.6245347 -16.39089,32.9384337"
         style="fill:#ffffb2;fill-opacity:1;fill-rule:nonzero;stroke:#000000;stroke-width:10;stroke-miterlimit:4;stroke-opacity:1;stroke-dasharray:none" />
      <path
         style="fill:#ffffb2;fill-opacity:1;fill-rule:nonzero;stroke:#000000;stroke-width:10;stroke-miterlimit:4;stroke-opacity:1;stroke-dasharray:none"
         d="m -506.93155,84.871576 c 12.86846,-18.267307 17.40009,-31.77201 19.05312,-49.009837 0.9736,-10.152636 5.13594,-23.389929 35.87268,-25.813676 26.30987,-2.0746931 50.12168,-25.39708 42.24807,-38.446523 -6.63364,-10.994324 -24.67855,12.944598 -44.65372,12.630649 -21.40822,-0.336482 -44.12502,10.7150605 -58.80202,22.7527679 -12.14109,9.9578131 -27.72155,-2.127655 -36.63256,3.4144361"
         id="path4331"
         sodipodi:nodetypes="cssssss" />
      <path
         style="fill:#ffffb2;fill-opacity:1;fill-rule:nonzero;stroke:#000000;stroke-width:10;stroke-miterlimit:4;stroke-opacity:1;stroke-dasharray:none"
         d="m -527.27142,120.73043 c 16.63754,-14.91589 24.08251,-27.060239 29.55945,-43.488224 3.22577,-9.675644 10.25089,-21.642218 40.74822,-17.110742 26.10494,3.878809 54.54082,-13.509055 49.79445,-27.991932 -3.99891,-12.202014 -26.95304,7.080058 -46.34895,2.294172 -20.78741,-5.129244 -45.40411,0.545956 -62.40698,8.985326 -14.0651,6.981202 -26.53819,-8.290711 -36.46516,-4.888318"
         id="path4333"
         sodipodi:nodetypes="cssssss" />
      <path
         sodipodi:nodetypes="cssssss"
         id="path4335"
         d="m -550.70224,156.95755 c 22.0903,-3.3629 20.7907,-12.59974 38.0975,-13.18961 9.5463,-0.32536 29.81657,-6.28926 63.26476,-3.14053 29.53919,2.78075 54.86685,7.28905 55.01533,-7.95099 0.11071,-11.37253 -42.60234,-8.43223 -66.63262,-11.34708 -38.78047,-4.704 -25.14499,-18.87617 -36.32757,-32.810431 -9.828,-12.246408 -19.2278,-11.496251 -29.3964,-14.088602"
         style="fill:#ffffb2;fill-opacity:1;fill-rule:nonzero;stroke:#000000;stroke-width:10;stroke-miterlimit:4;stroke-opacity:1;stroke-dasharray:none" />
      <path
         style="fill:#ffffb2;fill-opacity:1;fill-rule:nonzero;stroke:#000000;stroke-width:10;stroke-miterlimit:4;stroke-opacity:1;stroke-dasharray:none"
         d="m -535.89026,105.07057 c 18.3535,12.74532 27.2423,23.87642 34.70763,39.50157 4.39684,9.20282 20.7177,24.5816 47.62781,39.63046 25.89561,14.48165 46.39036,17.10581 39.81359,30.85464 -4.90759,10.25967 -14.14386,3.41239 -25.91095,-0.34763 -11.76716,-3.76002 -59.73751,-35.02999 -75.42391,-34.32264 -15.68647,0.70745 -25.31017,11.50699 -35.58137,9.35753"
         id="path4337"
         sodipodi:nodetypes="cssssss" />
      <path
         sodipodi:nodetypes="cssssss"
         id="path4339"
         d="m -569.44907,180.4375 c 13.50137,17.80459 18.50409,31.14198 20.76082,48.31119 1.32922,10.11224 12.08216,29.79094 33.00548,52.43686 20.13454,21.79223 29.17148,55.9238 9.18177,53.58646 -11.29621,-1.32082 -8.04262,-22.54412 -25.73965,-41.92518 -8.32975,-9.12242 -25.62019,-30.16272 -40.75387,-34.35025 -15.13381,-4.18753 -27.62987,3.09893 -36.72986,-2.12713"
         style="fill:#ffffb2;fill-opacity:1;fill-rule:nonzero;stroke:#000000;stroke-width:10;stroke-miterlimit:4;stroke-opacity:1;stroke-dasharray:none" />
      <path
         sodipodi:nodetypes="cssssss"
         id="path4341"
         d="m -683.82888,231.26308 c 3.29015,22.1013 9.32835,35.00295 20.02597,48.62044 6.30064,8.02035 12.85231,29.46684 14.41484,60.25943 1.50361,29.63171 19.58845,59.95613 31.89321,44.02991 6.95339,-8.99985 -10.49533,-21.51208 -11.97927,-47.71524 -0.69846,-12.3335 -3.65292,-39.40611 3.93392,-53.15397 7.58687,-13.74786 21.53317,-17.58787 24.159,-27.74789"
         style="fill:#ffffb2;fill-opacity:1;fill-rule:nonzero;stroke:#000000;stroke-width:10;stroke-miterlimit:4;stroke-opacity:1;stroke-dasharray:none" />
      <path
         sodipodi:nodetypes="cssssss"
         id="path4345"
         d="m -684.85056,233.86265 c -4.51659,21.8836 -13.67258,20.10142 -15.16911,37.35356 -0.82552,9.51607 -7.84406,29.44573 -6.45349,63.01303 1.22803,29.64442 4.40208,55.17364 -10.82478,54.52273 -11.3627,-0.48569 -6.18678,-42.98586 -7.83758,-67.13594 -2.66409,-38.97379 -17.53174,-26.10017 -30.86048,-37.99797 -11.71422,-10.45662 -10.4722,-19.80422 -12.52781,-30.09477"
         style="fill:#ffffb2;fill-opacity:1;fill-rule:nonzero;stroke:#000000;stroke-width:10;stroke-miterlimit:4;stroke-opacity:1;stroke-dasharray:none" />
      <path
         sodipodi:nodetypes="cssssss"
         id="path4347"
         d="m -789.19974,223.97719 c -5.72121,21.6 -5.27926,35.83789 -0.84113,52.57641 2.61395,9.85856 0.14727,32.14742 -10.59877,61.04632 -10.34094,27.80943 -5.72721,62.81436 11.87403,53.05484 9.94641,-5.51505 -1.12934,-23.90909 7.87339,-48.56188 4.23745,-11.60375 12.23354,-37.63677 24.63997,-47.26196 12.40643,-9.62519 26.73422,-7.63498 33.165,-15.92749"
         style="fill:#ffffb2;fill-opacity:1;fill-rule:nonzero;stroke:#000000;stroke-width:10;stroke-miterlimit:4;stroke-opacity:1;stroke-dasharray:none" />
      <path
         sodipodi:nodetypes="cssssss"
         id="path4349"
         d="m -789.09151,262.53825 c -19.10416,11.58979 -24.03204,3.66991 -37.68771,14.31877 -7.53234,5.87377 -26.90857,14.3007 -50.54926,38.17147 -20.87795,21.08107 -37.41674,40.78598 -47.30624,29.18947 -7.37982,-8.6536 27.27443,-33.79595 43.84004,-51.44621 26.73386,-28.48428 7.18247,-30.61033 6.82333,-48.47326 -0.31562,-15.69918 7.37686,-21.15316 13.51505,-29.66453"
         style="fill:#ffffb2;fill-opacity:1;fill-rule:nonzero;stroke:#000000;stroke-width:10;stroke-miterlimit:4;stroke-opacity:1;stroke-dasharray:none" />
      <path
         style="fill:#ffffb2;fill-opacity:1;fill-rule:nonzero;stroke:#000000;stroke-width:10;stroke-miterlimit:4;stroke-opacity:1;stroke-dasharray:none"
         d="m -851.97685,189.38916 c -19.37237,11.13563 -29.177,21.46916 -37.94608,36.40163 -5.16476,8.79483 -22.73627,22.7275 -50.83042,35.42956 -27.03506,12.22318 -47.67886,13.09211 -42.29716,27.35114 4.0159,10.64045 13.80188,4.6048 25.84651,1.86075 12.04465,-2.74403 62.5042,-29.8143 78.07333,-27.77333 15.56915,2.04098 24.23797,13.62104 34.65507,12.35433"
         id="path4351"
         sodipodi:nodetypes="cssssss" />
      <path
         style="fill:#ffffb2;fill-opacity:1;fill-rule:nonzero;stroke:#000000;stroke-width:10;stroke-miterlimit:4;stroke-opacity:1;stroke-dasharray:none"
         d="m -868.77015,154.27356 c -21.99495,3.93884 -34.7134,10.35394 -48.01032,21.44751 -7.83154,6.53383 -29.07603,13.71355 -59.80932,16.18117 -29.57471,2.37459 -49.29891,-3.7794 -49.04911,11.45931 0.1863,11.37155 11.4358,8.99549 23.6994,10.48045 12.26372,1.48495 68.90083,-6.95334 82.86592,0.22581 13.96508,7.17916 18.21367,21.00651 28.44652,23.33233"
         id="path4353"
         sodipodi:nodetypes="cssssss" />
      <path
         sodipodi:nodetypes="cssssss"
         id="path4355"
         d="m -887.34008,89.441921 c -20.90506,7.891186 -32.23733,16.522069 -43.28354,29.858359 -6.50594,7.85473 -17.38249,16.47167 -44.17816,1.21994 -22.93629,-13.05504 -55.73512,-7.12495 -56.54652,8.09418 -0.6836,12.82235 27.6894,3.14426 44.0427,14.61925 17.52651,12.29827 42.52974,15.90759 61.43372,14.18686 15.63771,-1.42343 21.74514,17.32512 32.23069,17.74217"
         style="fill:#ffffb2;fill-opacity:1;fill-rule:nonzero;stroke:#000000;stroke-width:10;stroke-miterlimit:4;stroke-opacity:1;stroke-dasharray:none" />
      <path
         style="fill:#ffffb2;fill-opacity:1;fill-rule:nonzero;stroke:#000000;stroke-width:10;stroke-miterlimit:4;stroke-opacity:1;stroke-dasharray:none"
         d="m -848.7774,62.468591 c -22.22464,-2.314578 -23.29555,6.951562 -40.19215,3.159399 -9.31997,-2.091709 -30.43903,-1.430467 -62.01315,-12.909623 -27.8842,-10.137642 -51.2573,-20.885307 -55.2428,-6.174897 -2.9742,10.9773 39.10058,18.899726 61.61994,27.778341 36.34212,14.32845 19.57428,24.605452 26.8829,40.908729 6.42332,14.32848 15.70869,15.9722 24.89535,21.04428"
         id="path4357"
         sodipodi:nodetypes="cssssss" />
      <path
         sodipodi:nodetypes="cssssss"
         id="path4359"
         d="m -801.86367,38.996061 c -19.08091,-11.628007 -32.85654,-15.25357 -50.16606,-15.759163 -10.19487,-0.297778 -30.86178,-9.001555 -55.51113,-27.522726 -23.72009,-17.822928 -58.59165,-23.355177 -54.24097,-3.705141 2.45855,11.104151 23.24298,5.717062 44.31736,21.359289 9.91943,7.362596 32.60333,22.432301 38.30265,37.063822 5.69933,14.63153 -0.28353,27.801632 5.83763,36.32526"
         style="fill:#ffffb2;fill-opacity:1;fill-rule:nonzero;stroke:#000000;stroke-width:10;stroke-miterlimit:4;stroke-opacity:1;stroke-dasharray:none" />
      <path
         style="fill:#ffffb2;fill-opacity:1;fill-rule:nonzero;stroke:#000000;stroke-width:10;stroke-miterlimit:4;stroke-opacity:1;stroke-dasharray:none"
         d="m -836.14214,69.521385 c -11.64095,-19.073024 -15.27587,-32.846188 -15.79321,-50.155355 -0.30471,-10.1946681 -9.02251,-30.855673 -27.5604,-55.492423 -17.83903,-23.708 -23.39495,-58.575789 -3.74198,-54.238447 11.10585,2.451 5.73285,23.239086 21.38939,44.302838 7.36933,9.914442 22.45442,32.588093 37.08981,38.277489 14.63541,5.6893872 27.80144,-0.302406 36.32922,5.8129712"
         id="path4361"
         sodipodi:nodetypes="cssssss" />
      <path
         style="fill:#ffffb2;fill-opacity:1;fill-rule:nonzero;stroke:#000000;stroke-width:10;stroke-miterlimit:4;stroke-opacity:1;stroke-dasharray:none"
         d="m -814.8148,25.410776 c -1.27972,-22.3081753 2.00453,-36.16913 9.70478,-51.679815 4.53526,-9.135401 7.99187,-22.574261 -16.82847,-40.865646 -21.24546,-15.656863 -29.14802,-48.037205 -15.57024,-54.959935 11.4395,-5.83249 14.11949,24.025662 31.24737,34.30868 18.35669,11.020771 31.81014,32.402873 37.9157,50.376274 5.05063,14.867932 24.66369,12.834073 29.30356,22.246432"
         id="path4363"
         sodipodi:nodetypes="cssssss" />
      <path
         sodipodi:nodetypes="cssssss"
         id="path4365"
         d="m -774.81327,18.49955 c -0.98487,-22.3231257 2.48225,-36.139481 10.38674,-51.547072 4.65557,-9.074682 6.99727,-31.376996 2.65909,-61.902457 -4.17463,-29.374691 -14.50782,-47.267201 0.41412,-50.368271 11.13514,-2.31411 11.28615,9.1825 15.42664,20.8212 4.1405,11.63871 8.33923,68.746827 18.4085,80.795632 10.06928,12.048791 24.49197,13.158825 29.00709,22.63165"
         style="fill:#ffffb2;fill-opacity:1;fill-rule:nonzero;stroke:#000000;stroke-width:10;stroke-miterlimit:4;stroke-opacity:1;stroke-dasharray:none" />
      <path
         style="fill:#ffffb2;fill-opacity:1;fill-rule:nonzero;stroke:#000000;stroke-width:10;stroke-miterlimit:4;stroke-opacity:1;stroke-dasharray:none"
         d="m -640.69028,3.59064 c 0.67021,-22.334788 -2.99125,-36.100928 -11.1121,-51.395599 -4.78298,-9.008169 -7.43871,-31.275277 -3.53111,-61.858851 3.76029,-29.43059 -8.6768,-62.47526 -23.6041,-48.97608 -8.43536,7.62833 6.52562,23.02905 3.35229,49.08166 -1.49365,12.262627 -3.3734,39.431022 -13.27188,51.620515 -9.8985,12.189496 -24.30411,13.502644 -28.68528,23.038158"
         id="path4367"
         sodipodi:nodetypes="cssssss" />
      <path
         style="fill:#ffffb2;fill-opacity:1;fill-rule:nonzero;stroke:#000000;stroke-width:10;stroke-miterlimit:4;stroke-opacity:1;stroke-dasharray:none"
         d="m -673.12085,-17.543257 c 14.90183,-16.650151 21.92221,-10.508277 31.88559,-24.671849 5.49572,-7.812438 21.57876,-21.515998 37.24473,-51.235928 13.83517,-26.246656 23.91993,-49.913366 36.75746,-41.698836 9.57973,6.12988 -16.25235,40.273093 -26.961,61.981985 -17.28179,35.034177 2.04152,31.375359 7.58621,48.35974 4.87306,14.9270634 -0.89809,22.3845424 -4.29208,32.3143754"
         id="path4369"
         sodipodi:nodetypes="cssssss" />
      <path
         sodipodi:nodetypes="cssssss"
         id="path4371"
         d="m -576.17377,81.702552 c 17.56423,-13.812651 25.77636,-25.45196 32.30063,-41.492824 3.84262,-9.447656 19.22148,-25.768425 45.19048,-42.388755 24.99,-15.993737 45.29274,-19.830304 37.91125,-33.164304 -5.50821,-9.950192 -14.32163,-2.566534 -25.84472,1.885599 -11.5231,4.45213 -57.55193,38.5154746 -73.25267,38.7408069 -15.70073,0.2253307 -25.94872,-9.9837213 -36.07432,-7.2281531"
         style="fill:#ffffb2;fill-opacity:1;fill-rule:nonzero;stroke:#000000;stroke-width:10;stroke-miterlimit:4;stroke-opacity:1;stroke-dasharray:none" />
      <path
         sodipodi:nodetypes="cssssss"
         id="path4373"
         d="m -562.07174,44.527061 c 20.06237,9.838401 30.52495,19.505194 40.25646,33.829058 5.73161,8.436385 15.74185,18.046091 43.8633,5.404573 24.0711,-10.820751 56.15973,-1.80654 55.52407,13.420985 -0.53577,12.829373 -27.86301,0.503791 -45.23091,10.376023 -18.61395,10.58049 -43.84681,11.80207 -62.50234,8.29611 -15.43221,-2.90018 -23.29035,15.18455 -33.7682,14.60518"
         style="fill:#ffffb2;fill-opacity:1;fill-rule:nonzero;stroke:#000000;stroke-width:10;stroke-miterlimit:4;stroke-opacity:1;stroke-dasharray:none" />
      <path
         transform="matrix(1.1813953,0,0,1.1130952,105.74751,-26.466132)"
         d="m -535.71428,126.6479 c 0,66.27417 -68.75627,120 -153.57143,120 -84.81515,0 -153.57142,-53.72583 -153.57142,-120 0,-66.274167 68.75627,-119.9999966 153.57142,-119.9999966 84.81516,0 153.57143,53.7258296 153.57143,119.9999966 z"
         sodipodi:ry="120"
         sodipodi:rx="153.57143"
         sodipodi:cy="126.6479"
         sodipodi:cx="-689.28571"
         id="path4377"
         style="fill:#ffffb2;fill-opacity:1;fill-rule:nonzero;stroke:none"
         sodipodi:type="arc" />
      <path
         sodipodi:type="arc"
         style="fill:#ffffb2;fill-opacity:1;fill-rule:nonzero;stroke:none"
         id="path4379"
         sodipodi:cx="-689.28571"
         sodipodi:cy="126.6479"
         sodipodi:rx="153.57143"
         sodipodi:ry="120"
         d="m -535.71428,126.6479 c 0,66.27417 -68.75627,120 -153.57143,120 -84.81515,0 -153.57142,-53.72583 -153.57142,-120 0,-66.274167 68.75627,-119.9999966 153.57142,-119.9999966 84.81516,0 153.57143,53.7258296 153.57143,119.9999966 z"
         transform="matrix(0.75348832,0,0,0.7380952,-274.91695,94.598261)" />
      <path
         id="path4381"
         d="m -681.42857,212.36218 c 70,51.42857 111.42857,22.85715 51.42857,-12.85714 -60,-35.71429 -45.71429,-27.14286 -45.71429,-27.14286"
         style="fill:#ffffb2;fill-opacity:1;fill-rule:nonzero;stroke:none" />
      <path
         sodipodi:nodetypes="csc"
         id="path4409"
         d="m -651.42858,215.93361 c 0,0 75.00001,77.85713 87.85715,63.57142 12.85714,-14.28572 -66.42858,-92.14285 -66.42858,-92.14285"
         style="fill:#ffffb2;fill-opacity:1;fill-rule:nonzero;stroke:#000000;stroke-width:10;stroke-linecap:round;stroke-linejoin:round;stroke-miterlimit:4;stroke-opacity:1;stroke-dasharray:none;stroke-dashoffset:0" />
      <path
         style="fill:#ffffb2;fill-opacity:1;fill-rule:nonzero;stroke:#000000;stroke-width:10;stroke-linecap:round;stroke-linejoin:round;stroke-miterlimit:4;stroke-opacity:1;stroke-dasharray:none;stroke-dashoffset:0"
         d="m -598.18817,146.93423 c 0,0 95.77459,57.46465 83.34016,72.11977 -12.43443,14.65512 -105.10899,-47.05684 -105.10899,-47.05684"
         id="path4411"
         sodipodi:nodetypes="csc" />
      <path
         sodipodi:nodetypes="csc"
         id="path4413"
         d="m -596.73521,131.57623 c 0,0 107.2951,13.20962 108.27922,-5.98462 0.9841,-19.19426 -103.85178,-27.341955 -103.85178,-27.341955"
         style="fill:#ffffb2;fill-opacity:1;fill-rule:nonzero;stroke:#000000;stroke-width:10;stroke-linecap:round;stroke-linejoin:round;stroke-miterlimit:4;stroke-opacity:1;stroke-dasharray:none;stroke-dashoffset:0" />
      <path
         sodipodi:nodetypes="csc"
         id="path4415"
         d="m -596.1921,62.736442 c 0,0 105.62959,-36.295287 108.83919,-17.345719 3.2096,18.949566 -103.67444,50.138367 -103.67444,50.138367"
         style="fill:#ffffb2;fill-opacity:1;fill-rule:nonzero;stroke:#000000;stroke-width:10;stroke-linecap:round;stroke-linejoin:round;stroke-miterlimit:4;stroke-opacity:1;stroke-dasharray:none;stroke-dashoffset:0" />
      <path
         sodipodi:nodetypes="csc"
         id="path4417"
         d="m -644.34984,47.936637 c 0,0 58.44262,-95.180974 72.96961,-82.597088 14.52699,12.583885 -48.13097,104.621488 -48.13097,104.621488"
         style="fill:#ffffb2;fill-opacity:1;fill-rule:nonzero;stroke:#000000;stroke-width:10;stroke-linecap:round;stroke-linejoin:round;stroke-miterlimit:4;stroke-opacity:1;stroke-dasharray:none;stroke-dashoffset:0" />
      <path
         sodipodi:nodetypes="csc"
         id="path4419"
         d="m -692.48057,42.445639 c 0,0 5.73981,-111.543769 24.51841,-107.450871 18.7786,4.092895 7.83302,114.895126 7.83302,114.895126"
         style="fill:#ffffb2;fill-opacity:1;fill-rule:nonzero;stroke:#000000;stroke-width:10;stroke-linecap:round;stroke-linejoin:round;stroke-miterlimit:4;stroke-opacity:1;stroke-dasharray:none;stroke-dashoffset:0" />
      <path
         style="fill:#ffffb2;fill-opacity:1;fill-rule:nonzero;stroke:#000000;stroke-width:10;stroke-linecap:round;stroke-linejoin:round;stroke-miterlimit:4;stroke-opacity:1;stroke-dasharray:none;stroke-dashoffset:0"
         d="m -745.57927,44.198586 c 0,0 -56.95424,-96.078995 -39.04873,-103.063284 17.90552,-6.984289 70.11358,91.358263 70.11358,91.358263"
         id="path4421"
         sodipodi:nodetypes="csc" />
      <path
         style="fill:#ffffb2;fill-opacity:1;fill-rule:nonzero;stroke:#000000;stroke-width:10;stroke-linecap:round;stroke-linejoin:round;stroke-miterlimit:4;stroke-opacity:1;stroke-dasharray:none;stroke-dashoffset:0"
         d="m -803.38993,69.284531 c 0,0 -73.43715,-84.154282 -57.09554,-94.270577 16.34161,-10.116297 85.5219,77.124906 85.5219,77.124906"
         id="path4423"
         sodipodi:nodetypes="csc" />
      <path
         sodipodi:nodetypes="csc"
         id="path4425"
         d="m -836.10408,110.79161 c 0,0 -102.75292,-43.781217 -92.44672,-60.003725 10.30621,-16.222515 110.57113,32.191172 110.57113,32.191172"
         style="fill:#ffffb2;fill-opacity:1;fill-rule:nonzero;stroke:#000000;stroke-width:10;stroke-linecap:round;stroke-linejoin:round;stroke-miterlimit:4;stroke-opacity:1;stroke-dasharray:none;stroke-dashoffset:0" />
      <path
         sodipodi:nodetypes="csc"
         id="path4427"
         d="m -846.24428,158.80918 c 0,0 -111.47751,6.90817 -109.53397,-12.21277 1.94354,-19.12095 113.27282,-20.77289 113.27282,-20.77289"
         style="fill:#ffffb2;fill-opacity:1;fill-rule:nonzero;stroke:#000000;stroke-width:10;stroke-linecap:round;stroke-linejoin:round;stroke-miterlimit:4;stroke-opacity:1;stroke-dasharray:none;stroke-dashoffset:0" />
      <path
         style="fill:#ffffb2;fill-opacity:1;fill-rule:nonzero;stroke:#000000;stroke-width:10;stroke-linecap:round;stroke-linejoin:round;stroke-miterlimit:4;stroke-opacity:1;stroke-dasharray:none;stroke-dashoffset:0"
         d="m -834.64593,201.56246 c 0,0 -98.9495,51.80689 -104.97957,33.5579 -6.03007,-18.24901 94.92949,-65.19692 94.92949,-65.19692"
         id="path4429"
         sodipodi:nodetypes="csc" />
      <path
         style="fill:#ffffb2;fill-opacity:1;fill-rule:nonzero;stroke:#000000;stroke-width:10;stroke-linecap:round;stroke-linejoin:round;stroke-miterlimit:4;stroke-opacity:1;stroke-dasharray:none;stroke-dashoffset:0"
         d="m -793.78993,232.64038 c 0,0 -55.92666,96.68075 -70.77863,84.48212 -14.85198,-12.19864 45.37099,-105.84762 45.37099,-105.84762"
         id="path4431"
         sodipodi:nodetypes="csc" />
      <path
         sodipodi:nodetypes="csc"
         id="path4433"
         d="m -737.27017,234.88528 c 0,0 9.09752,111.32022 -10.05791,109.75282 -19.15545,-1.56742 -22.99483,-112.84274 -22.99483,-112.84274"
         style="fill:#ffffb2;fill-opacity:1;fill-rule:nonzero;stroke:#000000;stroke-width:10;stroke-linecap:round;stroke-linejoin:round;stroke-miterlimit:4;stroke-opacity:1;stroke-dasharray:none;stroke-dashoffset:0" />
      <path
         sodipodi:nodetypes="csc"
         id="path4435"
         d="m -673.83675,225.97116 c 0,0 36.58308,105.53026 17.64234,108.79151 -18.94077,3.26123 -50.42077,-103.5374 -50.42077,-103.5374"
         style="fill:#ffffb2;fill-opacity:1;fill-rule:nonzero;stroke:#000000;stroke-width:10;stroke-linecap:round;stroke-linejoin:round;stroke-miterlimit:4;stroke-opacity:1;stroke-dasharray:none;stroke-dashoffset:0" />
      <path
         sodipodi:nodetypes="csc"
         id="path4437"
         d="m -688.57143,212.36219 c 0,0 27.59288,49.79284 38.57143,47.14284 20.71428,-4.99999 -13.57143,-58.57142 -13.57143,-58.57142"
         style="fill:#ffffb2;fill-opacity:1;fill-rule:nonzero;stroke:#000000;stroke-width:10;stroke-linecap:round;stroke-linejoin:round;stroke-miterlimit:4;stroke-opacity:1;stroke-dasharray:none;stroke-dashoffset:0" />
      <path
         style="fill:#ffffb2;fill-opacity:1;fill-rule:nonzero;stroke:#000000;stroke-width:10;stroke-linecap:round;stroke-linejoin:round;stroke-miterlimit:4;stroke-opacity:1;stroke-dasharray:none;stroke-dashoffset:0"
         d="m -630.14702,159.76622 c 0,0 43.90909,36.231 39.29665,46.54004 -8.70272,19.45107 -55.10314,-24.05077 -55.10314,-24.05077"
         id="path4439"
         sodipodi:nodetypes="csc" />
      <path
         style="fill:#ffffb2;fill-opacity:1;fill-rule:nonzero;stroke:#000000;stroke-width:10;stroke-linecap:round;stroke-linejoin:round;stroke-miterlimit:4;stroke-opacity:1;stroke-dasharray:none;stroke-dashoffset:0"
         d="m -631.12149,140.96637 c 0,0 56.90403,1.6202 60.21614,-9.17707 6.2493,-20.37223 -57.31567,-18.15789 -57.31567,-18.15789"
         id="path4441"
         sodipodi:nodetypes="csc" />
      <path
         sodipodi:nodetypes="csc"
         id="path4443"
         d="m -680.49428,79.030313 c 0,0 22.88554,-52.124332 34.06161,-50.497612 21.08699,3.069272 -8.11457,59.573062 -8.11457,59.573062"
         style="fill:#ffffb2;fill-opacity:1;fill-rule:nonzero;stroke:#000000;stroke-width:10;stroke-linecap:round;stroke-linejoin:round;stroke-miterlimit:4;stroke-opacity:1;stroke-dasharray:none;stroke-dashoffset:0" />
      <path
         sodipodi:nodetypes="csc"
         id="path4445"
         d="m -712.29647,75.501964 c 0,0 -4.97772,-56.709047 -16.08581,-58.749033 -20.95868,-3.849063 -11.40113,59.032272 -11.40113,59.032272"
         style="fill:#ffffb2;fill-opacity:1;fill-rule:nonzero;stroke:#000000;stroke-width:10;stroke-linecap:round;stroke-linejoin:round;stroke-miterlimit:4;stroke-opacity:1;stroke-dasharray:none;stroke-dashoffset:0" />
      <path
         style="fill:#ffffb2;fill-opacity:1;fill-rule:nonzero;stroke:#000000;stroke-width:10;stroke-linecap:round;stroke-linejoin:round;stroke-miterlimit:4;stroke-opacity:1;stroke-dasharray:none;stroke-dashoffset:0"
         d="m -789.97439,103.15601 c 0,0 -33.69326,-45.885265 -26.69549,-54.749909 13.20337,-16.725805 47.53052,36.819094 47.53052,36.819094"
         id="path4447"
         sodipodi:nodetypes="csc" />
      <path
         style="fill:#ffffb2;fill-opacity:1;fill-rule:nonzero;stroke:#000000;stroke-width:10;stroke-linecap:round;stroke-linejoin:round;stroke-miterlimit:4;stroke-opacity:1;stroke-dasharray:none;stroke-dashoffset:0"
         d="m -801.70247,120.92474 c 0,0 -56.92597,0.35859 -59.86079,11.26446 -5.53744,20.57713 57.91216,16.15478 57.91216,16.15478"
         id="path4449"
         sodipodi:nodetypes="csc" />
      <path
         sodipodi:nodetypes="csc"
         id="path4451"
         d="m -781.18491,189.1547 c 0,0 -43.03576,37.26413 -52.43298,30.99972 -17.73068,-11.81967 32.88923,-50.32985 32.88923,-50.32985"
         style="fill:#ffffb2;fill-opacity:1;fill-rule:nonzero;stroke:#000000;stroke-width:10;stroke-linecap:round;stroke-linejoin:round;stroke-miterlimit:4;stroke-opacity:1;stroke-dasharray:none;stroke-dashoffset:0" />
      <path
         sodipodi:nodetypes="csc"
         id="path4455"
         d="m -746.88394,205.80167 c 0,0 -12.95009,55.43455 -3.03161,60.83594 18.71411,10.19134 29.23691,-52.53568 29.23691,-52.53568"
         style="fill:#ffffb2;fill-opacity:1;fill-rule:nonzero;stroke:#000000;stroke-width:10;stroke-linecap:round;stroke-linejoin:round;stroke-miterlimit:4;stroke-opacity:1;stroke-dasharray:none;stroke-dashoffset:0" />
      <path
         id="path4467"
         d="m -709.89688,112.62113 c 0,0 11.64137,-29.410684 21.94147,-20.459016 10.30011,8.951666 4.44061,31.994496 4.44061,31.994496"
         style="fill:#ffffb2;fill-opacity:1;fill-rule:nonzero;stroke:#000000;stroke-width:10;stroke-linecap:round;stroke-linejoin:round;stroke-miterlimit:4;stroke-opacity:1;stroke-dasharray:none;stroke-dashoffset:0" />
      <path
         sodipodi:nodetypes="csc"
         style="fill:#ffffb2;fill-opacity:1;fill-rule:nonzero;stroke:#000000;stroke-width:10;stroke-linecap:round;stroke-linejoin:round;stroke-miterlimit:4;stroke-opacity:1;stroke-dasharray:none;stroke-dashoffset:0"
         d="m -682.48099,149.19095 c 0,0 19.09952,24.39119 7.84121,32.10318 -11.25832,7.71199 -25.65246,-9.47929 -25.65246,-9.47929"
         id="path4469" />
      <path
         id="path4471"
         d="m -730.51711,181.54982 c 0,0 -21.77918,22.03155 -30.85338,11.83923 -9.0742,-10.19232 6.15814,-26.6455 6.15814,-26.6455"
         style="fill:#ffffb2;fill-opacity:1;fill-rule:nonzero;stroke:#000000;stroke-width:10;stroke-linecap:round;stroke-linejoin:round;stroke-miterlimit:4;stroke-opacity:1;stroke-dasharray:none;stroke-dashoffset:0"
         sodipodi:nodetypes="csc" />
      <path
         style="fill:#ffffb2;fill-opacity:1;fill-rule:nonzero;stroke:#000000;stroke-width:10;stroke-linecap:round;stroke-linejoin:round;stroke-miterlimit:4;stroke-opacity:1;stroke-dasharray:none;stroke-dashoffset:0"
         d="m -763.82167,141.93399 c 0,0 -24.25061,-20.30808 -12.51157,-27.26647 11.73906,-6.9584 31.76572,5.85715 31.76572,5.85715"
         id="path4473" />
      <path
         sodipodi:nodetypes="csc"
         id="path4475"
         d="m -729.44118,153.30473 c 0,0 -8.70996,-19.51435 4.70007,-22.04324 13.41005,-2.52889 20.71015,8.50064 20.71015,8.50064"
         style="fill:#ffffb2;fill-opacity:1;fill-rule:nonzero;stroke:#000000;stroke-width:10;stroke-linecap:round;stroke-linejoin:round;stroke-miterlimit:4;stroke-opacity:1;stroke-dasharray:none;stroke-dashoffset:0" />
      <path
         style="fill:#ffffb2;fill-opacity:1;fill-rule:nonzero;stroke:#000000;stroke-width:10;stroke-linecap:round;stroke-linejoin:round;stroke-miterlimit:4;stroke-opacity:1;stroke-dasharray:none;stroke-dashoffset:0"
         d="m -658.45868,127.01697 c 0,0 30.59171,-8.04096 29.48023,5.56011 -1.11146,13.60107 -23.14786,22.52872 -23.14786,22.52872"
         id="path4477" />
    </g>
    <path
       style="fill:none;stroke:#000000;stroke-width:5;stroke-linecap:round;stroke-linejoin:round;stroke-miterlimit:4;stroke-opacity:1;stroke-dasharray:none;stroke-dashoffset:0"
       d="m -606.09153,1196.814 c 0,0 6.06092,-59.599 6.06092,-103.0356 0,-43.4365 -15.15229,-117.17766 -15.15229,-117.17766"
       id="path4789" />
    <path
       style="fill:none;stroke:#000000;stroke-width:5;stroke-linecap:round;stroke-linejoin:round;stroke-miterlimit:4;stroke-opacity:1;stroke-dasharray:none;stroke-dashoffset:0"
       d="m -590.43416,1192.2683 c 9.09137,-75.2564 -5.05077,-167.1802 -5.05077,-167.1802"
       id="path4791" />
    <path
       style="fill:none;stroke:#000000;stroke-width:5;stroke-linecap:round;stroke-linejoin:round;stroke-miterlimit:4;stroke-opacity:1;stroke-dasharray:none;stroke-dashoffset:0"
       d="m -575.78695,1193.2785 c 5.55584,-93.9442 -11.11168,-229.30467 -11.11168,-229.30467"
       id="path4793" />
    <path
       style="fill:none;stroke:#000000;stroke-width:5;stroke-linecap:round;stroke-linejoin:round;stroke-miterlimit:4;stroke-opacity:1;stroke-dasharray:none;stroke-dashoffset:0"
       d="m -893.985,928.11342 c 26.26396,-105.05587 66.67007,-117.1777 83.84266,-165.66502 17.17259,-48.48732 18.18274,-75.76144 18.18274,-75.76144"
       id="path4795" />
    <path
       style="fill:none;stroke:#000000;stroke-width:5;stroke-linecap:round;stroke-linejoin:round;stroke-miterlimit:4;stroke-opacity:1;stroke-dasharray:none;stroke-dashoffset:0"
       d="m -881.86317,920.53728 c 22.22336,-71.21576 73.23606,-122.22846 80.30713,-143.94674 7.07107,-21.71828 15.15229,-58.58885 15.15229,-58.58885"
       id="path4797" />
    <path
       id="path4801"
       style="fill:none;stroke:#000000;stroke-width:5;stroke-linecap:round;stroke-linejoin:round;stroke-miterlimit:4;stroke-opacity:1;stroke-dasharray:none;stroke-dashoffset:0"
       d="m -877.82256,949.8317 c 6.06091,-51.51778 73.74113,-137.38075 81.82235,-155.56349 8.08122,-18.18275 10.10153,-19.1929 18.68783,-51.01271 8.5863,-31.8198 28.28427,-211.12187 28.28427,-211.12187"
       sodipodi:nodetypes="cszc" />
    <path
       style="fill:none;stroke:#000000;stroke-width:5;stroke-linecap:round;stroke-linejoin:round;stroke-miterlimit:4;stroke-opacity:1;stroke-dasharray:none;stroke-dashoffset:0"
       d="m -618.21336,513.95088 c 10.10153,114.14723 84.85282,236.37569 97.9848,251.52798 13.13198,15.15229 29.29442,34.34519 29.29442,34.34519"
       id="path4804" />
  </g>
</svg>
